/* XPM */
static const char *R29sZE1pbmVfSW5hY3RpdmVfMl8tcmVtb3ZlYmctcHJldmlldw__[] = {
/* columns rows colors chars-per-pixel */
"60 60 239 2 ",
"   c #040405",
".  c #080405",
"X  c #02050B",
"o  c #0B050B",
"O  c #030A0C",
"+  c #0B0A0C",
"@  c #090A06",
"#  c #030C12",
"$  c #0B0B12",
"%  c #070715",
"&  c #130C16",
"*  c #0B1215",
"=  c #0C131C",
"-  c #0B1A1D",
";  c #041517",
":  c #1C141B",
">  c #1C1B1E",
",  c #12181A",
"<  c #0B0E0D",
"1  c #251A1C",
"2  c #1C201F",
"3  c #302B1C",
"4  c #0C1C24",
"5  c #131C23",
"6  c #1C1B23",
"7  c #141B2C",
"8  c #1B1B2C",
"9  c #181627",
"0  c #151C31",
"q  c #181E32",
"w  c #261D27",
"e  c #19262A",
"r  c #1A2C34",
"t  c #1A3435",
"y  c #272B29",
"u  c #362926",
"i  c #29302A",
"p  c #393527",
"a  c #272E34",
"s  c #2B3B3C",
"d  c #283536",
"f  c #383738",
"g  c #382F34",
"h  c #48372B",
"j  c #473B38",
"k  c #513726",
"l  c #3A4939",
"z  c #29413C",
"x  c #59462B",
"c  c #474439",
"v  c #5C4833",
"b  c #4B5334",
"n  c #685135",
"m  c #67713F",
"M  c #153A40",
"N  c #2B3E46",
"B  c #343E46",
"V  c #292E41",
"C  c #1E434C",
"Z  c #2D4443",
"A  c #2B4B49",
"S  c #344445",
"D  c #3C4C44",
"F  c #34444C",
"G  c #35494C",
"H  c #3A4D4D",
"J  c #374744",
"K  c #365448",
"L  c #2B4C52",
"P  c #364C53",
"I  c #345251",
"U  c #3B5454",
"Y  c #395857",
"T  c #2B5458",
"R  c #375C65",
"E  c #3D6467",
"W  c #414D4C",
"Q  c #564C48",
"!  c #475A4A",
"~  c #575748",
"^  c #5D4F52",
"/  c #4B5553",
"(  c #435C5B",
")  c #4C5A5B",
"_  c #465657",
"`  c #525B57",
"'  c #404853",
"]  c #735847",
"[  c #685851",
"{  c #6B5649",
"}  c #576849",
"|  c #4C645B",
" . c #48695A",
".. c #566656",
"X. c #58745D",
"o. c #62684B",
"O. c #6C6659",
"+. c #79655A",
"@. c #737152",
"#. c #455D63",
"$. c #555E64",
"%. c #4A6767",
"&. c #546364",
"*. c #526B6B",
"=. c #586C67",
"-. c #4A736A",
";. c #54736B",
":. c #5A7468",
">. c #486B75",
",. c #536C71",
"<. c #4A7373",
"1. c #4B7679",
"2. c #597674",
"3. c #5D7C7D",
"4. c #567777",
"5. c #6A6C65",
"6. c #667B6A",
"7. c #787866",
"8. c #677B78",
"9. c #7A716C",
"0. c #887357",
"q. c #957658",
"w. c #846950",
"e. c #957B69",
"r. c #857565",
"t. c #7B8356",
"y. c #6E835C",
"u. c #5B847A",
"i. c #5B8668",
"p. c #668469",
"a. c #76896C",
"s. c #64827C",
"d. c #6B8777",
"f. c #788875",
"g. c #7C9378",
"h. c #6A9270",
"j. c #9F835E",
"k. c #998467",
"l. c #9B8674",
"z. c #879A7B",
"x. c #828371",
"c. c #A68769",
"v. c #A68C74",
"b. c #A99476",
"n. c #B89878",
"m. c #B08F6C",
"M. c #98A87F",
"N. c #9FB17F",
"B. c #A5A879",
"V. c #5A7A81",
"C. c #4C7482",
"Z. c #617482",
"A. c #5B8484",
"S. c #5C838D",
"D. c #5A898A",
"F. c #5D9094",
"G. c #628383",
"H. c #6B8485",
"J. c #658B83",
"K. c #6A8D84",
"L. c #648B8B",
"P. c #6A888B",
"I. c #768A84",
"U. c #69948A",
"Y. c #74938B",
"T. c #799688",
"R. c #6D8D92",
"E. c #6A8A96",
"W. c #718B93",
"Q. c #659493",
"!. c #6C9493",
"~. c #6C9994",
"^. c #6B9B9B",
"/. c #67989A",
"(. c #739595",
"). c #739B94",
"_. c #799C93",
"`. c #74959A",
"'. c #739C9B",
"]. c #7A9B9B",
"[. c #7BA286",
"{. c #6AA29E",
"}. c #7AA39B",
"|. c #74A297",
" X c #6B9BA1",
".X c #679EA2",
"XX c #769CA5",
"oX c #6CA4A4",
"OX c #6FA3AA",
"+X c #73A4A2",
"@X c #7CA5AC",
"#X c #7CACAA",
"$X c #78A5A7",
"%X c #7AACB4",
"&X c #7DB2B4",
"*X c #859986",
"=X c #879A93",
"-X c #939C8F",
";X c #84A386",
":X c #95A38C",
">X c #88A898",
",X c #95AC97",
"<X c #98B399",
"1X c #A6A686",
"2X c #ADB491",
"3X c #859EA5",
"4X c #86A8A7",
"5X c #89B4AA",
"6X c #94B6A8",
"7X c #84B3B3",
"8X c #8BBABC",
"9X c #8AB7B8",
"0X c #92BBBD",
"qX c #96B9B6",
"wX c #80ABB2",
"eX c #A1B6AB",
"rX c #AE9B8A",
"tX c #9FC298",
"yX c #ABC398",
"uX c #98C5B8",
"iX c #8BC1B9",
"pX c #B4C8A9",
"aX c #A5CABA",
"sX c #B8CDB2",
"dX c #CACF95",
"fX c #CCD5AE",
"gX c #DCF0BD",
"hX c #E7E6AD",
"jX c #89B9C1",
"kX c #96BACA",
"lX c #8DC1C2",
"zX c #8FCBC9",
"xX c #94C2C3",
"cX c #92C6CA",
"vX c #99C5C7",
"bX c #98CACF",
"nX c #A4CAC3",
"mX c #DAF0C9",
"MX c None",
/* pixels */
"MXMXMXMXMXMXMXMXMXMXMXMXMXMXMXMXMXMXMXMXMXMXMXMXMXMXMXMXMXMXMXMXMXMXMXMXMXMXMXMXMXMXMXMXMXMXMXMXMXMXMXMXMXMXMXMXMXMXMXMX",
"MXMXMXMXMXMXMXMXMXMXMXMXMXMXMXMXMXMXMXMXMXMXMXMXMXMXMXMXMXMXMXMXMXMXMXMXMXMXMXMXMXMXMXMXMXMXMXMXMXMXMXMXMXMXMXMXMXMXMXMX",
"MXMXMXMXMXMXMXMXMXMXMXMXMXMXMXMXMXMXMXMXMXMXMXMXMXMXMXMXMXMXMXMXMXMXMXMXMXMXMXMXMXMXMXMXMXMXMXMXMXMXMXMXMXMXMXMXMXMXMXMX",
"MXMXMXMXMXMXMXMXMXMXMXMXMXMXMXMXMXMXMXMXMXMXMXMXMXMXMXMXMXMXMXMXMXMXMXMXMXMXMXMXMXMXMXMXMXMXMXMXMXMXMXMXMXMXMXMXMXMXMXMX",
"MXMXMXMXMXMXMXMXMXMXMXMXMXMXMXMXMXMXMXMXMXMXMXMXMXMXMXMXMXMXMXMXMXMXMXMXMXMXMXMXMXMXMXMXMXMXMXMXMXMXMXMXMXMXMXMXMXMXMXMX",
"MXMXMXMXMXMXMXMXMXMXMXMXMXMXMXMXMXMXMXMXMXMXMXMXMXMXMXMXMXMXMXMXMXMXMXMXMXMXMXMXMXMXMXMXMXMXMXMXMXMXMXMXMXMXMXMXMXMXMXMX",
"MXMXMXMXMXMXMXMXMXMXMXMXMXMXMXMXMXMXMXMXMXMXMXMXMXMXMXMXMXMXMXMXMXMXMXMXMXMXMXMXMXMXMXMXMXMXMXMXMXMXMXMXMXMXMXMXMXMXMXMX",
"MXMXMXMXMXMXMXMXMXMXMXMXMXMXMXMXMXMXMXMXMXMXMXMXMXMXMXMXMXMXMXMXMXMXMXMXMXMXMXMXMXMXMXMXMXMXMXMXMXMXMXMXMXMXMXMXMXMXMXMX",
"MXMXMXMXMXMXMXMXMXMXMXMXMXMXMXMXMXMXMXMXMXMXMXMXMXMXMXMXMXMXMXMXMXMXMXMXMXMXMXMXMXMXMXMXMXMXMXMXMXMXMXMXMXMXMXMXMXMXMXMX",
"MXMXMXMXMXMXMXMXMXMXMXMXMXMXMXMXMXMXMXMXMXMXMXMXMXMXMXMXMXMXMXMXMXMXMXMXMXMXMXMXMXMXMXMXMXMXMXMXMXMXMXMXMXMXMXMXMXMXMXMX",
"MXMXMXMXMXMXMXMXMXMXMXMXMXMXMXMXMXMXMXMXMXMXMXMXMXMXMXMXMXMXMXMXMXMXMXMXMXMXMXMXMXMXMXMXMXMXMXMXMXMXMXMXMXMXMXMXMXMXMXMX",
"MXMXMXMXMXMXMXMXMXMXMXMXMXMXMXMXMXMXMXMXMXMXMXMXMXMXMXMXMX4 5 ; MXMXMXMXMXMXMXMXMXMXMXMXMXMXMXMXMXMXMXMXMXMXMXMXMXMXMXMX",
"MXMXMXMXMXMXMXMXMXMXMXMXMXMXMXMXMXMXMXMXMXMXMXMXe I ( Y %.3.3.2.P I z ( Z MXMXMXMXMXMXMXMXMXMXMXMXMXMXMXMXMXMXMXMXMXMXMX",
"MXMXMXMXMXMXMXMXMXMXMXMXMXMXMXMXMXMXMXMXMXMX8.(.2.4X4X(.!.`.(.`.].J.L.(.4X*.d MXMXMXMXMXMXMXMXMXMXMXMXMXMXMXMXMXMXMXMXMX",
"MXMXMXMXMXMXMXMXMXMXMXMXMXMXMXMXMXMXMXMXs s.qX4X!.$X#X|.Q./.#X7X#X$X'.A.5XqX8.s O MXMXMXMXMXMXMXMXMXMXMXMXMXMXMXMXMXMXMX",
"MXMXMXMXMXMXMXMXMXMXMXMXMXMXMXMXMXMXD d U G.qXqXnX5X#X$XQ./.7XlXlX7X%.K.qX9XP.Y N G e MXMXMXMXMXMXMXMXMXMXMXMXMXMXMXMXMX",
"MXMXMXMXMXMXMXMXMXMXMXMXMXMXMXMXMX( f.l ( %.(.4X>X:.U.{..X X'.+X/.'.X.g.>X'.<.T L R.#.Z MXMXMXMXMXMXMXMXMXMXMXMXMXMXMXMX",
"MXMXMXMXMXMXMXMXMXMXMXMXMXMXMXMXW.=.<Xf.*.~.'.u. .=.).#X%X+XA.L.@X5Xp.M.<X).D.1.>.'.,.H.W MXMXMXMXMXMXMXMXMXMXMXMXMXMXMX",
"MXMXMXMXMXMXMXMXMXMXMXMXMXMXMX_ 8.` -X7.2.8XcXD.I I Q.8X8X#XA.<.+XU.} fXmX<XuX/.>.Z.$.8./ i MXMXMXMXMXMXMXMXMXMXMXMXMXMX",
"MXMXMXMXMXMXMXMXMXMXMXMXMXMX$._ D ` c l s.$XjXOXT E Q.^.^.+X'.1.oX~.! o.z.>X}.A.P F N G / ` > MXMXMXMXMXMXMXMXMXMXMXMXMX",
"MXMXMXMXMXMXMXMXMXMXMXMXMXS F 2.T.fXo.~ 8.U./. XF.D.A.L.'.!.G.E F./.K.d.s.K.P.P.#.A 4.'.,.P F a + MXMXMXMXMXMXMXMXMXMXMX",
"MXMXMXMXMXMXMXMXMXMXMXMX&.H P 3X>X:X@.1X*XU <.#XxXvX@X~.<.A.1.C C.8XiXuX9X;.D l =._.xXbX$XL F $.a O MXMXMXMXMXMXMXMXMXMX",
"MXMXMXMXMXMXMXMXMXMXMX) ) Z >.XXqX<XdXhX1XD %.L.}.5XnX0XR >.C.>.E.S./.}.).X.b 7.z.6X7X%XOXE G _ $., MXMXMXMXMXMXMXMXMXMX",
"MXMXMXMXMXMXMXMXMXMXMXS r Z 1.S.!.[.N.B.@.l *.J.).)._.3.Y XXjXkXkXS.1.U.I...t.fXpX[.+XoXF.>.A _ I.y   MXMXMXMXMXMXMXMXMX",
"MXMXMXMXMXMXMXMXMXMX/ D Z %.E.S.1.!.d.! W z -.~.).).Y.6.K u.^.$XXXR 1.%.<Xy.t.fXfXf.d.-.A.L.%.H &./ 5 X MXMXMXMXMXMXMXMX",
"MXMXMXMXMXMXMXMXMXMX5.=.U G.vX9X XwX4X=.N A ~.Q.Q.'.s.d.;Xi.J.#X'.D.@X}.;Xg.} } g.*X>XU.uX0XH.H &.) s * MXMXMXMXMXMXMXMX",
"MXMXMXMXMXMXMXMXMX$.sX,X2.4X0XcXcXlXuX_.U #.@X7X&X#XY.Y.>X .A (.5XiX&X+X}.>X( K _.6XuXuX8XxX4X%.Z _ ) d   MXMXMXMXMXMXMX",
"MXMXMXMXMXMXMXMXMX_ f.6.( +X#X$XcXbX|. .H #.V.#XvXnXnX6X=X:.W :.Y.U.{.^.J.2.Y I *.}.nXuX5X4X`.V.t d H d O MXMXMXMXMXMXMX",
"MXMXMXMXMXMXMXMXV F l X.;.).~.^./.oXu.;.s d =.H.T.T.T.T.a.} O.~ 7.d.Y.K.I.=./ S ;.s._.T.d.6XY.2.*.H s s * MXMXMXMXMXMXMX",
"MXMXMXMXMXMXMXMXB a ! 6.T.6X4X$X+X/.J.S g 9.9.x.5.:X:X7.@.1XrX+.r.x.f...7.x.5.a S I.*Xa.b pX>X(.8.*.8.W , + MXMXMXMXMXMX",
"MXMXMXMXMXMXMXMXB _ :. .p.[.6X9X+XL.-.| j [ b.w.x k.v.w.n b.e.n w.b.e.v q.l.5.J | ! B.hX2Xz.I.3.%.&.eXS e   MXMXMXMXMXMX",
"MXMXMXMXMXMXMXr &.4XT.,XsXtX .Y.(.Y  .| f +.v.0.n k.v.w.n k.v.{ 0.k.e.n q.l.5.s | l t.dX2X}  .<.G.].4X&.e # MXMXMXMXMXMX",
"MXMXMXMXMXMXMXP R.qX[.tXgXyXb <X8.Y K.=.d j Q j u Q [ f p Q ^ g c Q c u j [ f d =.p.a.,XI.S ;.7XxXvX9X(.G ; O MXMXMXMXMX",
"MXMXMXMXMXMXMX%.XX/.h.h.N.m b z.d.qX6X2./ g g j j 1 : 6 5 5 6 6 , , > f j j g ) 2.qXaXqX=XP u.#X&X&X X!.,.4 X MXMXMXMXMX",
"MXMXMXMXMXMX5 %.XX^.|.[.a.} l d.Y.'.).Y.) f 9.+.+.u : 6 e 5 9 8 8 6 y [ [ +.j ` J.}.).T.I.H Y Q./..X X'.%.- O MXMXMXMXMX",
"MXMXMXMXMXMXe ,.XX&X|.[.;XpX! ;.|.|./.Q.,.f 7.k.e.h w 9 7 7 8 9 w : p l.e.e.h 6.(.Q.(.Y.,X-X-.Q.oXoX7X$X,.e * MXMXMXMXMX",
"MXMXMXMXMX* B W.@X8XiXuXaX6XI 1.{.{./.>.P y 0.q.c.k 1 9 0 0 0 8 8 & h n.c.q.p -X9X^.XX;.:XeX4XxXbX8X7X'.H.Z O MXMXMXMXMX",
"MXMXMXMXMX, ' P.XX X+X}.5XJ.L.8X8XzXjX%XR.l @.q.n.v : 8 q 0 7 7 7 6 v c.q.] p T.qX8XxX_.T.d.K.5X/.+X#X].H.( - MXMXMXMXMX",
"MXMXMXMXMX* a N #.S.'.!.P.G.0XbXcXjXjXjXXXJ v m.n.] > q 0 0 q 7 7 6 ] m.j.v c Y.qX0X9XuXuX6XJ.P.'.'.V.( d a , MXMXMXMXMX",
"MXMXMXMXMXMXMXMX; t 4.H.*.P P.9X7X^.`.E.P.&.x c.m.] : 7 4 7 8 7 7 6 { c.k.x ..s.R.L.|.5X5XJ.G &.P.3.r ; MXMXMXMXMXMXMXMX",
"MXMXMXMXMXMXMXMX# # ; - - e ( `.].`.(.*.P S c e.e.[ > = = $ % = 4 e O.e.r.p i H *.W.).~.Q.E e = - ; # # MXMXMXMXMXMXMXMX",
"MXMXMXMXMXMXMXMXMXMXMX# O O - r F N d - # * 1 Q r.O.a 5 O $ $ = , 2 Q +.O.1 O # ; d A A M 4 % $ $ MXMXMXMXMXMXMXMXMXMXMX",
"MXMXMXMXMXMXMXMXMXMXMXMXMXO O O # # O   X O + 1 u f 6 *   + $ o , < & w w . + $ X X # ; # # MXMXMXMXMXMXMXMXMXMXMXMXMXMX",
"MXMXMXMXMXMXMXMXMXMXMXMXMXMXMXO O O @ @ $ $ $ o   $ X O @ + o o   . % & & o o o $ # O O MXMXMXMXMXMXMXMXMXMXMXMXMXMXMXMX",
"MXMXMXMXMXMXMXMXMXMXMXMXMXMXMXMXMXMX    . o $ X # $ X + @ @ o + + + & % % & o o   MXMXMXMXMXMXMXMXMXMXMXMXMXMXMXMXMXMXMX",
"MXMXMXMXMXMXMXMXMXMXMXMXMXMXMXMXMXMXMXMX. o $ O O # $ + . @ o X . . $ $ % & .   MXMXMXMXMXMXMXMXMXMXMXMXMXMXMXMXMXMXMXMX",
"MXMXMXMXMXMXMXMXMXMXMXMXMXMXMXMXMXMXMXMXMXMXMXMXMXX $ o . + $ X # O .   X X X MXMXMXMXMXMXMXMXMXMXMXMXMXMXMXMXMXMXMXMXMX",
"MXMXMXMXMXMXMXMXMXMXMXMXMXMXMXMXMXMXMXMXMXMXMXMXMXMXMXMXMXMXMXMXMXMXMXMXMXMXMXMXMXMXMXMXMXMXMXMXMXMXMXMXMXMXMXMXMXMXMXMX",
"MXMXMXMXMXMXMXMXMXMXMXMXMXMXMXMXMXMXMXMXMXMXMXMXMXMXMXMXMXMXMXMXMXMXMXMXMXMXMXMXMXMXMXMXMXMXMXMXMXMXMXMXMXMXMXMXMXMXMXMX",
"MXMXMXMXMXMXMXMXMXMXMXMXMXMXMXMXMXMXMXMXMXMXMXMXMXMXMXMXMXMXMXMXMXMXMXMXMXMXMXMXMXMXMXMXMXMXMXMXMXMXMXMXMXMXMXMXMXMXMXMX",
"MXMXMXMXMXMXMXMXMXMXMXMXMXMXMXMXMXMXMXMXMXMXMXMXMXMXMXMXMXMXMXMXMXMXMXMXMXMXMXMXMXMXMXMXMXMXMXMXMXMXMXMXMXMXMXMXMXMXMXMX",
"MXMXMXMXMXMXMXMXMXMXMXMXMXMXMXMXMXMXMXMXMXMXMXMXMXMXMXMXMXMXMXMXMXMXMXMXMXMXMXMXMXMXMXMXMXMXMXMXMXMXMXMXMXMXMXMXMXMXMXMX",
"MXMXMXMXMXMXMXMXMXMXMXMXMXMXMXMXMXMXMXMXMXMXMXMXMXMXMXMXMXMXMXMXMXMXMXMXMXMXMXMXMXMXMXMXMXMXMXMXMXMXMXMXMXMXMXMXMXMXMXMX",
"MXMXMXMXMXMXMXMXMXMXMXMXMXMXMXMXMXMXMXMXMXMXMXMXMXMXMXMXMXMXMXMXMXMXMXMXMXMXMXMXMXMXMXMXMXMXMXMXMXMXMXMXMXMXMXMXMXMXMXMX",
"MXMXMXMXMXMXMXMXMXMXMXMXMXMXMXMXMXMXMXMXMXMXMXMXMXMXMXMXMXMXMXMXMXMXMXMXMXMXMXMXMXMXMXMXMXMXMXMXMXMXMXMXMXMXMXMXMXMXMXMX",
"MXMXMXMXMXMXMXMXMXMXMXMXMXMXMXMXMXMXMXMXMXMXMXMXMXMXMXMXMXMXMXMXMXMXMXMXMXMXMXMXMXMXMXMXMXMXMXMXMXMXMXMXMXMXMXMXMXMXMXMX",
"MXMXMXMXMXMXMXMXMXMXMXMXMXMXMXMXMXMXMXMXMXMXMXMXMXMXMXMXMXMXMXMXMXMXMXMXMXMXMXMXMXMXMXMXMXMXMXMXMXMXMXMXMXMXMXMXMXMXMXMX",
"MXMXMXMXMXMXMXMXMXMXMXMXMXMXMXMXMXMXMXMXMXMXMXMXMXMXMXMXMXMXMXMXMXMXMXMXMXMXMXMXMXMXMXMXMXMXMXMXMXMXMXMXMXMXMXMXMXMXMXMX",
"MXMXMXMXMXMXMXMXMXMXMXMXMXMXMXMXMXMXMXMXMXMXMXMXMXMXMXMXMXMXMXMXMXMXMXMXMXMXMXMXMXMXMXMXMXMXMXMXMXMXMXMXMXMXMXMXMXMXMXMX",
"MXMXMXMXMXMXMXMXMXMXMXMXMXMXMXMXMXMXMXMXMXMXMXMXMXMXMXMXMXMXMXMXMXMXMXMXMXMXMXMXMXMXMXMXMXMXMXMXMXMXMXMXMXMXMXMXMXMXMXMX"
};
