/* XPM */
static char *result[] = {
/* columns rows colors chars-per-pixel */
"60 60 6 1 ",
"  c #BFBA5B",
". c #9BB94E",
"X c #679175",
"o c #79A863",
"O c #161C2E",
"+ c white",
/* pixels */
"           .   .......   ... ...........      X             ",
"                .......................  ..                 ",
"  ..            ...  .................. ....        ...     ",
" ....           ..     .........................   .....  ..",
".....                           .................  ..... ...",
".....     ...         .................................. ...",
".........................oooooo.............................",
".......................ooooooooo.oooo......   ..............",
".....................ooooooooooooooooo...      ..........ooo",
"....................oooooooooooooooooo             ooo..oooo",
"....ooo...........oooooo.....oooooooooooo         ooooooo..o",
"...ooooo...oo...ooooooo.......ooo...ooooooo   ooooo..ooo....",
"..oooooooooooo................oo............................",
"..ooooooooooooooo..................................oo.....oo",
".oooo...ooooo.......................XXXXXX...XXX.ooooo.ooooo",
"oooo.................XXXXX..XXX...    XXXXX.XXXXXooooooooooo",
"oooo................XXXXXXXXXXXX.       XXXXXX  XXoooooooooo",
"ooo...............XXX    XXX  XX         XXXX    XX  ooo..oo",
"oooooooooo.....XXXX                       XX          oo....",
"ooooooooooooo XX                    ooo    X  ..        ....",
"ooooo                  ooo         ooooo     ....         ..",
"o            ......  ooooooo  ooooooooooooo...........   ...",
".........................ooooooooooooooooooooo..............",
".............................oooooooooooooooooooo...oooooo..",
"............    .................ooooooooooooooooooooooooo..",
"...........      ............ooooooo...ooooooooooooooo   o..",
".......             ....ooooooooooo.....ooooooo......     ..",
".........    ...     ...................oooo.....  ..      .",
"........... .....     .........................            .",
"..............................................        ooo   ",
"    ooo......................................ooooooooooooo  ",
"oooooooooooo................................ooooo..ooooooooo",
"ooooooooooooooooooooo....................oooooo.....oooooooo",
"ooooooooooooooooo......................................ooooo",
"ooooooooooo.............................................ooo.",
"o...oo.........................XXXXX....XXXXX......   ..oo..",
".............................XXXXXXXX..XXXXXXX....     .oo..",
"........     ...............XXX   XXXXXXX    XX..        oo.",
"...          .....XXXXX..XXXXX      XXXX       X.         ..",
"            .....XXXXXXXXXXXXX        X                   ..",
"          ...XX.XXX  XXXXX  XXX                             ",
"............XXXXXX    XXX     X                             ",
"............XX  XX                         ....     oo      ",
"........  XXX                     oooo    ......   oooo     ",
"......            ...     ....   oooooo.. .......oooooo     ",
"....             .....   ...ooooooooooo.......ooooooooo.....",
"...   ...      .......   ..ooooooooooo.......ooooooooooo....",
".    .....   ........... ..ooooooooooooooo..oooooo..ooooo...",
".........................oooooooooooooooooooooooo.....ooooo.",
"...................oooooooooo...ooooooooooooooooo...........",
"...ooo................oooooo.....oo...ooooooo..oo...........",
"..ooooo..................ooo.....o......oooo....oo..........",
".oooooo............  ......................................o",
"ooooooo...........    ....    ............................oo",
"oooooooooo......                ........oooo.............ooo",
"ooooooooooooooo              oooo..ooooooooooo..oooo....oooo",
"ooooooooooooo.....          oooooooooooooooooooooooooooooooo",
"oooooooooo.........      .ooo...oooooooooooooooooooooXXXXooo",
"..XXXXooo......         ............ooooooooooooooooXXXXXXoo",
".XXXXXXXo....           .......oooooooooooooooooXXXoXXXXXXoO"
};
