/* XPM */
static char *a41687a132f742c290e1e179a24ee7d5QH1OQ0MZU2lQR9UV[] = {
/* columns rows colors chars-per-pixel */
"60 60 230 2 ",
"   c None",
".  c #010003",
"X  c #00090C",
"o  c #08090C",
"O  c #120A03",
"+  c #0F120C",
"@  c #17160B",
"#  c #010513",
"$  c #030A12",
"%  c #010B1B",
"&  c #090B17",
"*  c #0C1215",
"=  c #00131A",
"-  c #0D121A",
";  c #041415",
":  c #141B1E",
">  c #171618",
",  c #221C17",
"<  c #261F05",
"1  c #1F241C",
"2  c #24231C",
"3  c #2A231E",
"4  c #312E1F",
"5  c #020D23",
"6  c #041625",
"7  c #0D1623",
"8  c #091B24",
"9  c #021629",
"0  c #061C2A",
"q  c #131422",
"w  c #1D1D25",
"e  c #141A2D",
"r  c #171D31",
"t  c #031B32",
"y  c #211F20",
"u  c #0B212D",
"i  c #062326",
"p  c #1C2224",
"a  c #1D222B",
"s  c #182627",
"d  c #19322C",
"f  c #082A37",
"g  c #1B2A31",
"h  c #172737",
"j  c #173439",
"k  c #282928",
"l  c #38342C",
"z  c #232C35",
"x  c #252C39",
"c  c #283638",
"v  c #353C3E",
"b  c #393938",
"n  c #2C3029",
"m  c #463716",
"M  c #433F35",
"N  c #423320",
"B  c #19423D",
"V  c #45473A",
"C  c #53493E",
"Z  c #53473B",
"A  c #1D3B46",
"S  c #183948",
"D  c #13354B",
"F  c #2F3C44",
"G  c #233947",
"H  c #333648",
"J  c #2B394D",
"K  c #4F3F4A",
"L  c #194149",
"P  c #1B4554",
"I  c #2B424C",
"U  c #374548",
"Y  c #2A4958",
"T  c #384A56",
"R  c #37555A",
"E  c #345353",
"W  c #1D5566",
"Q  c #365165",
"!  c #36566C",
"~  c #3B5767",
"^  c #385975",
"/  c #2E4F65",
"(  c #3A6275",
")  c #36637A",
"_  c #346163",
"`  c #454445",
"'  c #554A49",
"]  c #5C554B",
"[  c #545448",
"{  c #4C5855",
"}  c #5E5B56",
"|  c #525C5D",
" . c #565655",
".. c #675848",
"X. c #695E58",
"o. c #5D605D",
"O. c #6A634B",
"+. c #6B6455",
"@. c #776A5B",
"#. c #746C53",
"$. c #455764",
"%. c #435A74",
"&. c #435770",
"*. c #424E64",
"=. c #605263",
"-. c #4E626B",
";. c #47646A",
":. c #546368",
">. c #4A647B",
",. c #466A7D",
"<. c #547878",
"1. c #4A757C",
"2. c #696866",
"3. c #797565",
"4. c #687778",
"5. c #797976",
"6. c #707073",
"7. c #82735C",
"8. c #8A7556",
"9. c #816F57",
"0. c #857967",
"q. c #8E7C70",
"w. c #57805E",
"e. c #498379",
"r. c #5F8B72",
"t. c #798D7B",
"y. c #6A807E",
"u. c #94826B",
"i. c #8B8377",
"p. c #978877",
"a. c #9F927D",
"s. c #A28A66",
"d. c #A79679",
"f. c #B09772",
"g. c #486A85",
"h. c #4C7885",
"j. c #587B88",
"k. c #4D7593",
"l. c #577997",
"z. c #516D8D",
"x. c #687E83",
"c. c #498784",
"v. c #55898A",
"b. c #548597",
"n. c #59959C",
"m. c #4C9894",
"M. c #688989",
"N. c #6C9B84",
"B. c #678993",
"V. c #7A999C",
"C. c #729797",
"Z. c #5BA39F",
"A. c #7FA095",
"S. c #5E97A2",
"D. c #6394A3",
"F. c #689DA9",
"G. c #7E99A4",
"H. c #5EA4A8",
"J. c #65A7A8",
"K. c #6EADB3",
"L. c #888782",
"P. c #8F9286",
"I. c #9A948A",
"U. c #8C9494",
"Y. c #978D83",
"T. c #A99888",
"R. c #AB9B89",
"E. c #97A986",
"W. c #97B28D",
"Q. c #AAA18D",
"!. c #BAA485",
"~. c #A5AA99",
"^. c #B6AB97",
"/. c #B5B79B",
"(. c #AFB697",
"). c #AF9AA1",
"_. c #89ACAC",
"`. c #A7ADA4",
"'. c #ABBBA7",
"]. c #BAB5AC",
"[. c #BBB6A5",
"{. c #B9BCB6",
"}. c #BDA5A5",
"|. c #C6A985",
" X c #CBB68C",
".X c #D5BA8C",
"XX c #D5B68C",
"oX c #C8B897",
"OX c #D4B696",
"+X c #C3BCAB",
"@X c #C4BAA6",
"#X c #D2B9AA",
"$X c #BBC19B",
"%X c #ACC7A8",
"&X c #B4C6AA",
"*X c #D7C398",
"=X c #CEC091",
"-X c #CCC5AA",
";X c #D6CAA9",
":X c #CEC7B5",
">X c #D7CCB3",
",X c #DBD2B7",
"<X c #D2D3AB",
"1X c #E4CEA4",
"2X c #E8D9A9",
"3X c #E5D8BA",
"4X c #EAD7B8",
"5X c #EDE6BF",
"6X c #F5E5BA",
"7X c #8DBCC5",
"8X c #97C7C5",
"9X c #DBD1C3",
"0X c #DBD9C4",
"qX c #D8D9D2",
"wX c #D4CEC6",
"eX c #E3DBC2",
"rX c #E3DECA",
"tX c #ECDCC5",
"yX c #E7DAD2",
"uX c #DBE6C6",
"iX c #E9E5C7",
"pX c #F2E4C9",
"aX c #ECEAD7",
"sX c #FAECD8",
"dX c #F4F4DD",
"fX c #FBF4D9",
"gX c #FEFBE4",
"hX c #FFFFEB",
"jX c #F6F7E7",
"kX c #F0EDE3",
/* pixels */
"                                                                                                                        ",
"                                                                                                                        ",
"                                                                                                                        ",
"                                                                                                                        ",
"                                                                                                                        ",
"                                                                                                                        ",
"                                                                                                                        ",
"                                                                                                                        ",
"                                                                                                                        ",
"                                                                                                                        ",
"                                                                                                                        ",
"                                                                                                                        ",
"                                                                                                                        ",
"                                                                F.v.B.B.                                                ",
"                                                          _.K.J.H.J.F.h.Y                                               ",
"                                                        8XJ.Z.m.H.K.K.D.b.P                                             ",
"                                                      7XS.m.n.J.F.n.F.D.b.( f                                           ",
"                                                      D.W n.n._ L f P ) k.k.S                                           ",
"                                                    _.( ) F.P i f D D D ^ k.Y G                                         ",
"                                                    1.,./ ( S i A Y ! ^ g.l.Y                                           ",
"                                                    G ~ / >.6 = u T Q ^ z.%.j                                           ",
"                                                    u I G J g a : a h G G D u                                           ",
"                jXhX                              6.~.{ z v ` } L. .a % 5 5 7                                           ",
"                dXhXhX                          +.P.kXqXwXqX9X9X^.C y : # #                                             ",
"                0XdXhXgX                      a.Q.,XaXrXiXeXpX3Xp.@.] , # #                                             ",
"                >X0XfXgXaX                    d.tXsXgXgXpXfX6X6X*Xd.@.3 o .                                             ",
"                [.-XeXgXrX                  0.>X,X7.-XiX5X2X2X2XXX!.p.C 2 .                                             ",
"                  -X;X,XdX                  ..pXR.N +XfX5X6X2X.XXX|.u.C @ .                                             ",
"                    oX>XeX[.              @ Q.9X+., +XfXiX;X X.XXX Xd.@.2 *                                             ",
"                    d.-XoX^.              2 ].].b 2 {.jXiX;XoX XXXOXQ.3.k * p                                           ",
"                    ..^.7.^.i.          $ : k b : * o.~.i.0.8.s.|.!.u.] k - *         8X                                ",
"                      u.a.0.[.M         $ v 2.k : p p + < m 9.f.XX|.q.M p $ X : c y.V.B j i                             ",
"                      ..T.+.@XX.O o ; X + i.yX5.p a L.Q.f.*X*X.X|.|.q.` - $ * k 2.U.U R I =                             ",
"                        Y.i.C I.n v x.s + I.sX:Xl { jXiX6X.X=X Xf.u...> w z X.L.5.| -.B.I =                             ",
"                        V I.V L.:.$.~ R p 3.pXeX+.V dX3X1XXX XOXR...M 6.t.L.0.i.P.4.v.h.Y 6                             ",
"                        > } 2.` x.j ^ B.s 4 ;X3X:X(.iXpX*XOX#XT.@.3 } `.[ [ 7.T.`.M.v.c.Y %                             ",
"                        : v | g j R B.~ ; + O.>XrXfXtXpX;Xu.] n > w [ 3...oXoX,X&XN.c.v.Y %                             ",
"                        U c g F -.-.J u X o @ @.qXkX9XR.Z , * h T z [ 3.O. X X,X%XN.e.e.Y 6                             ",
"                        $.g F U n ' 6.H & : d c U 4.b > w c A ! ~ x } 9.s.*X1X<XW.w.r.A.| -                             ",
"                          F z k X.}.).=.: 8 G ;.I 0 h J T Q g.g.>.x ' T.f.oXoX$XW.W.%X'.2.o                             ",
"                            p  .@X#X).K w % 0 Q >.Q Y ! ,.g.k.l.%.F ' R.d./.(.E.&XuX-X+X] O                             ",
"                              l 0.3.' k - # 6 h &.>.,.,.h.b.l.z.&.g } p.3.'.t.t.~.0X@XQ.l @                             ",
"                                  V s U i $ # e x *.j.j.h.h.g.%.*.x  .} E <.M.C.].[.@X3.@ @                             ",
"                                        d X % % e h A A S A G J G r v | R <.j.M.`.].I.4 +                               ",
"                                              u 0 u u u 8 8 7 7 r r a T _ 1.j.V.{.P.2 @                                 ",
"                                                A f 6 % # # # q e r # * j L g.G.U.1                                     ",
"                                                  D 9 % 5 & $ : r q o * 8 R I -.d                                       ",
"                                                      t 5 % % 8 6 r X ; = h A j                                         ",
"                                                            f 9 t                                                       ",
"                                                                                                                        ",
"                                                                                                                        ",
"                                                                                                                        ",
"                                                                                                                        ",
"                                                                                                                        ",
"                                                                                                                        ",
"                                                                                                                        ",
"                                                                                                                        ",
"                                                                                                                        ",
"                                                                                                                        ",
"                                                                                                                        "
};
