/* XPM */
static char *aabfc0145b07408ce0920736eb671ce9mw6JMota9EZSt6NG[] = {
/* columns rows colors chars-per-pixel */
"60 60 222 2 ",
"   c None",
".  c #030305",
"X  c #03040B",
"o  c #0A040A",
"O  c #04090C",
"+  c #0A0A0D",
"@  c #0C0506",
"#  c #07100D",
"$  c #17110C",
"%  c #040714",
"&  c #040A14",
"*  c #0C0D15",
"=  c #0B0E1A",
"-  c #070A15",
";  c #0B131B",
":  c #091815",
">  c #13151B",
",  c #1D131C",
"<  c #1A191E",
"1  c #181816",
"2  c #160A0A",
"3  c #28181C",
"4  c #331C1D",
"5  c #200B0A",
"6  c #29271B",
"7  c #33281B",
"8  c #0A1B25",
"9  c #0C1623",
"0  c #151923",
"q  c #1D1C22",
"w  c #1A1D2B",
"e  c #171726",
"r  c #121A34",
"t  c #281D26",
"y  c #231F36",
"u  c #1A232A",
"i  c #0F2F3C",
"p  c #1B2434",
"a  c #1A2B35",
"s  c #172537",
"d  c #00343F",
"f  c #1A363C",
"g  c #222123",
"h  c #28282A",
"j  c #372727",
"k  c #35322C",
"l  c #2C2B34",
"z  c #262938",
"x  c #372B34",
"c  c #2D303B",
"v  c #333533",
"b  c #393538",
"n  c #433B35",
"m  c #4C3D3A",
"M  c #503F38",
"N  c #413228",
"B  c #374138",
"V  c #49423C",
"C  c #41403E",
"Z  c #1C2B44",
"A  c #172946",
"S  c #19364D",
"D  c #093542",
"F  c #252D4D",
"G  c #2A3847",
"H  c #343B45",
"J  c #353A4E",
"K  c #2C3B58",
"L  c #383E60",
"P  c #194549",
"I  c #154053",
"U  c #0E575D",
"Y  c #35415B",
"T  c #324A5E",
"R  c #374A58",
"E  c #295358",
"W  c #395856",
"Q  c #29464C",
"!  c #1E5F75",
"~  c #364A64",
"^  c #2B5468",
"/  c #3A5768",
"(  c #3C5B70",
")  c #2A5C77",
"_  c #256D71",
"`  c #4C4D4C",
"'  c #444646",
"]  c #5A4946",
"[  c #54544D",
"{  c #474A55",
"}  c #544E50",
"|  c #5C5757",
" . c #49575A",
".. c #645D4C",
"X. c #64544A",
"o. c #624D55",
"O. c #675B53",
"+. c #645D57",
"@. c #5F605B",
"#. c #776749",
"$. c #6A6658",
"%. c #71645C",
"&. c #776A5B",
"*. c #797259",
"=. c #69634D",
"-. c #475666",
";. c #404F76",
":. c #445B7A",
">. c #4C5063",
",. c #426B6F",
"<. c #486678",
"1. c #556171",
"2. c #4C747D",
"3. c #59717B",
"4. c #696863",
"5. c #736C65",
"6. c #7A6B61",
"7. c #736D6A",
"8. c #796865",
"9. c #7E7369",
"0. c #6E7475",
"q. c #767874",
"w. c #816D65",
"e. c #846E69",
"r. c #857D6F",
"t. c #8B7C6B",
"y. c #877369",
"u. c #947A6C",
"i. c #95776F",
"p. c #837D73",
"a. c #897673",
"s. c #947E72",
"d. c #9E7D78",
"f. c #A07E74",
"g. c #8E8661",
"h. c #97866C",
"j. c #8D8375",
"k. c #888278",
"l. c #928275",
"z. c #9A8875",
"x. c #98957B",
"c. c #A8977C",
"v. c #B49D7B",
"b. c #B8A07C",
"n. c #506A83",
"m. c #567788",
"M. c #54758C",
"N. c #777E84",
"B. c #4F828B",
"V. c #50828B",
"C. c #5D8F90",
"Z. c #538991",
"A. c #4A999A",
"S. c #54919B",
"D. c #5B9694",
"F. c #4C8B94",
"G. c #678D8E",
"H. c #5D9DA8",
"J. c #689BA4",
"K. c #618BA3",
"L. c #54A5A6",
"P. c #59A4AA",
"I. c #5EABAB",
"U. c #57A5A9",
"Y. c #65AAAB",
"T. c #67A6AA",
"R. c #77ADB4",
"E. c #64B3B6",
"W. c #70B2B1",
"Q. c #8B8B88",
"!. c #988D86",
"~. c #9B9688",
"^. c #A69D8C",
"/. c #A59A84",
"(. c #AF9B8C",
"). c #A9A28B",
"_. c #B9A788",
"`. c #ACAA9C",
"'. c #B8A894",
"]. c #BBB59A",
"[. c #9DA5A7",
"{. c #AFB1A4",
"}. c #B9B0A1",
"|. c #A8A7A5",
" X c #C7B389",
".X c #C8B99A",
"XX c #D2BC95",
"oX c #D1B794",
"OX c #D5BE8C",
"+X c #C8BDAD",
"@X c #D2C18D",
"#X c #D7C69A",
"$X c #E1D19D",
"%X c #C8C5A7",
"&X c #DBCFAF",
"*X c #D6CAA8",
"=X c #DDD0AD",
"-X c #CBC6B6",
";X c #D8C9B6",
":X c #E7DCAD",
">X c #ECDCAC",
",X c #E7D6A4",
"<X c #F0DEAE",
"1X c #E1CCB1",
"2X c #ECDEB3",
"3X c #E6D8B9",
"4X c #F0E0AD",
"5X c #EAE2BA",
"6X c #F3E6BC",
"7X c #D8D4C8",
"8X c #DADFD8",
"9X c #E7DDD6",
"0X c #EADAC1",
"qX c #EAE5C6",
"wX c #FFEDCE",
"eX c #F2E5C7",
"rX c #FFF4CC",
"tX c #EEEADC",
"yX c #F6ECD5",
"uX c #FBF4D3",
"iX c #FAF4EB",
"pX c #FCF4E2",
/* pixels */
"                                                                                                                        ",
"                                                                                                                        ",
"                                                                                                                        ",
"                                                                                                                        ",
"                                                                                                                        ",
"                                                                                                                        ",
"                                                                                                                        ",
"                                                                                                                        ",
"                                                                                                                        ",
"                                                      / / <.2.E f                                                       ",
"                                                  P B.T.J.S.F.B.m.G                                                     ",
"                                                P Z.Y.L.U.P.P.S.m.<.s &                                                 ",
"                                                C.W.I.A.L.E.E._ ^ n.G ;                                                 ",
"                                                C.Y.L.A.E.I.S.d I M.T 8                                                 ",
"                                                E T.I._ Y.Y.V.D ^ n.T 8                                                 ",
"                                                  D.H.U T.R.2.S <.( G 9                                                 ",
"                                                  ,.H.! S.R.,.f T R p &                                                 ",
"                                                  f K.) Z.J.Q 8 a w - X                                                 ",
"                                                    -.n.T 3.a u 9 & X                                                   ",
"                                                ' Q.N.>.H 0.[.' > X                                                     ",
"                                              b n j.iX9X9XtX7X| C $ .                                                   ",
"                                              a.g.#.x.-X;XyX3X'.r.b @                                                   ",
"                                            O.'.XX#XeX'.z.eX#X X/...$                                                   ",
"                                            &._. X2XpX9.=.uX>X#X.Xl.j @                                                 ",
"                                          ] (.oX#X3XtX4.[ qX:X$X#X_.] @                                                 ",
"                                          ] c. X&XyX8XB v 7XuX:XXX.Xe.3 .                                               ",
"                                        7 w.'.c./.{.N.p u 0.`.x.h._.X.t o                                               ",
"                                    ..&.N i.'.#.6 1 u 0 0 0 1 7 #.v.w.t +                                               ",
"                                4.!./.X.4 e..X*X].$.v w z l 5.%X#Xb.8.t X                                               ",
"                          4.|.p.O.X.9.6.j ] c.#XeXuX~.q q Q.yXeX,X Xe.b %                                               ",
"                          7.4.n &.y.l.9.x O._.@X$XeX%X7 6 -XuX:XOXoXa., X                                               ",
"                          7.$.5.u.s.t.k.b V c.#X>X>X3X#...qX6X>XXX_.} ,                                                 ",
"                          %.%.w.t.h.l.%.g < n /.,X4XwX1X&XrX<X*X^.` < *                                                 ",
"                          %.l.t.l.u.y.n h H l k ).eXeXwX5X2X5X^.Q e %                                                   ",
"                          %.!.s.i.i.9.t p Y L K G q.-XeX5X%X4.H z w *                                                   ",
"                          7.9.w.f.d.o.e r K :.;.K a k x.x.B s K { c ;                                                   ",
"                          4.} %.u.i.o.w Z ~ :.~ :.~ c h g a ( <.1.c *                                                   ",
"                          ` } 8.s.l.a.l p Z A A T G l q J ~ :.m.-.w O                                                   ",
"                          g ' | p.j.l.m l G Z Y p ` r.m y F S / z &                                                     ",
"                            h l ` p.w.M , c p J G } +X'.{ F A s 9 X                                                     ",
"                            . q { ` m 5 2 l z G >.b '.'.+.u r r %                                                       ",
"                              + 0 q 3 4 ] 7.| w Y J 5.r.v > w e &                                                       ",
"                              . $ k 8.(.j.V ' { T <.H b < > u 0 * X                                                     ",
"                              7 $.)./.6.O.k.Q. .i m.G & = X > < > O                                                     ",
"                            &.)..Xg.*.].`.@.l R E G.R & ; X e w > + .                                                   ",
"                        k.!.].*X&X*X_.*.6 O 0 -.W W u & X O 9 = * O .                                                   ",
"                      ~.7X;X0XeX}.5.7   + - % ; : # & = O O * % + .                                                     ",
"                    q.iXpXpXyXt.          X & X O . X X # . X X                                                         ",
"                h Q.7XiX+Xp.j.                                                                                          ",
"                  5.7.5.k                                                                                               ",
"                                                                                                                        ",
"                                                                                                                        ",
"                                                                                                                        ",
"                                                                                                                        ",
"                                                                                                                        ",
"                                                                                                                        ",
"                                                                                                                        ",
"                                                                                                                        ",
"                                                                                                                        ",
"                                                                                                                        "
};
