/* XPM */
static const char *V2Fycmlvcl9CbHVlLXJlbW92ZWJnLXByZXZpZXc_[] = {
/* columns rows colors chars-per-pixel */
"60 60 233 2 ",
"   c #030204",
".  c #03050C",
"X  c #0A060D",
"o  c #04080D",
"O  c #090A0E",
"+  c #0B0605",
"@  c #1A140E",
"#  c #050612",
"$  c #0A0612",
"%  c #040C14",
"&  c #0B0A12",
"*  c #050D1C",
"=  c #0C0E1A",
"-  c #140D14",
";  c #0D1015",
":  c #09181B",
">  c #1A1414",
",  c #13131C",
"<  c #1A1718",
"1  c #170D0C",
"2  c #291C1A",
"3  c #3A341C",
"4  c #0E1D2D",
"5  c #091624",
"6  c #111423",
"7  c #141B24",
"8  c #141C2B",
"9  c #191C2A",
"0  c #181727",
"q  c #181D32",
"w  c #0E162A",
"e  c #231E25",
"r  c #231E35",
"t  c #0A222B",
"y  c #19252C",
"u  c #0C2636",
"i  c #0E2A3A",
"p  c #142738",
"a  c #18333F",
"s  c #21222A",
"d  c #272326",
"f  c #342828",
"g  c #232334",
"h  c #292B3A",
"j  c #382C35",
"k  c #2C3337",
"l  c #3B3639",
"z  c #39372F",
"x  c #453739",
"c  c #46362C",
"v  c #4B423D",
"b  c #574C39",
"n  c #59503F",
"m  c #182B43",
"M  c #193646",
"N  c #173B51",
"B  c #262D45",
"V  c #293748",
"C  c #353746",
"Z  c #2A3852",
"A  c #353D58",
"S  c #443E43",
"D  c #503D43",
"F  c #024948",
"G  c #184759",
"H  c #27444B",
"J  c #3C494C",
"K  c #2C4859",
"L  c #3A475C",
"P  c #38545A",
"I  c #28555A",
"U  c #1E5C69",
"Y  c #2A4C62",
"T  c #374866",
"R  c #34566B",
"E  c #365863",
"W  c #3C5B73",
"Q  c #395574",
"!  c #2E5E74",
"~  c #3B647B",
"^  c #3A6A7C",
"/  c #3A7278",
"(  c #336372",
")  c #4C4448",
"_  c #574B46",
"`  c #444556",
"'  c #5B5554",
"]  c #57514D",
"[  c #67564C",
"{  c #625452",
"}  c #6B5D55",
"|  c #635A55",
" . c #755E5E",
".. c #6A665A",
"X. c #76675B",
"o. c #7D715D",
"O. c #7D754E",
"+. c #45597B",
"@. c #6A5D60",
"#. c #42656C",
"$. c #456678",
"%. c #537179",
"&. c #756A61",
"*. c #766A66",
"=. c #7B726C",
"-. c #777269",
";. c #7E7572",
":. c #7D7974",
">. c #787778",
",. c #6F6E72",
"<. c #927F5E",
"1. c #8C7A6B",
"2. c #887768",
"3. c #9A7B66",
"4. c #947D6E",
"5. c #9A7B6A",
"6. c #947965",
"7. c #847C75",
"8. c #8C7B75",
"9. c #867877",
"0. c #947D75",
"q. c #9A7D73",
"w. c #957D79",
"e. c #836F6B",
"r. c #A07E6A",
"t. c #8E845D",
"y. c #8D836C",
"u. c #988267",
"i. c #8D8374",
"p. c #8A827B",
"a. c #948374",
"s. c #9B867A",
"d. c #9C957B",
"f. c #B4986F",
"g. c #A78C74",
"h. c #A99478",
"j. c #B19576",
"k. c #ADA47E",
"l. c #BBA279",
"z. c #C4AC7C",
"x. c #D0B57E",
"c. c #3E6E8A",
"v. c #397E93",
"b. c #466B88",
"n. c #487588",
"m. c #577882",
"M. c #487B93",
"N. c #467C94",
"B. c #58768F",
"V. c #627A84",
"C. c #407FA0",
"Z. c #3A8889",
"A. c #3A9093",
"S. c #4A828E",
"D. c #5D898F",
"F. c #44829A",
"G. c #4B839B",
"H. c #4A8798",
"J. c #52819B",
"K. c #59959A",
"L. c #499597",
"P. c #6A959D",
"I. c #638890",
"U. c #4484A2",
"Y. c #4E86A1",
"T. c #5098A2",
"R. c #6C9DA2",
"E. c #55A7A9",
"W. c #58B1AD",
"Q. c #5BB4B4",
"!. c #43A1A0",
"~. c #65A7AB",
"^. c #73A4A8",
"/. c #69ACB2",
"(. c #64B3B3",
"). c #8E8A82",
"_. c #968A85",
"`. c #989286",
"'. c #9D9999",
"]. c #8F9289",
"[. c #A69985",
"{. c #B29C84",
"}. c #B9A688",
"|. c #AAA198",
" X c #BFB596",
".X c #BDA893",
"XX c #B9B2AC",
"oX c #C7AB85",
"OX c #CCB584",
"+X c #CFB38A",
"@X c #D4B88A",
"#X c #CAB896",
"$X c #D3BC95",
"%X c #D2AF85",
"&X c #E0BF8C",
"*X c #C2BEBF",
"=X c #DAC08D",
"-X c #CEC39E",
";X c #D6C598",
":X c #E3CB99",
">X c #EAD29F",
",X c #D5C9A6",
"<X c #C9C4B7",
"1X c #DBCDB1",
"2X c #D7D1AD",
"3X c #EBD5A5",
"4X c #ECDBAD",
"5X c #E5D4A9",
"6X c #E9DCB7",
"7X c #F2DCB3",
"8X c #EBD5AA",
"9X c #F2E0AC",
"0X c #EBE1BA",
"qX c #ECE4B7",
"wX c #F3E4B9",
"eX c #EEE0AF",
"rX c #CECAC5",
"tX c #D2CEC3",
"yX c #DDD8C3",
"uX c #EADFCB",
"iX c #E8DCD0",
"pX c #EEE4C3",
"aX c #F7E9C7",
"sX c #FEF4CE",
"dX c #FDF4C9",
"fX c #FAECD5",
"gX c #FFFDDA",
"hX c #FAF3D9",
"jX c #EAE5D1",
"kX c #FFFBE5",
"lX c #FFFDEC",
"zX c #FFFCF1",
"xX c None",
/* pixels */
"xXxXxXxXxXxXxXxXxXxXxXxXxXxXxXxXxXxXxXxXxXxXxXxXxXxXxXxXxXxXxXxXxXxXxXxXxXxXxXxXxXxXxXxXxXxXxXxXxXxXxXxXxXxXxXxXxXxXxXxX",
"xXxXxXxXxXxXxXxXxXxXxXxXxXxXxXxXxXxXxXxXxXxXxXxXxXxXxXxXxXxXxXxXxXxXxXxXxXxXxXxXxXxXxXxXxXxXxXxXxXxXxXxXxXxXxXxXxXxXxXxX",
"xXxXxXxXxXxXxXxXxXxXxXxXxXxXxXxXxXxXxXxXxXxXxXxXxXxXxXxXxXxXxXxXxXxXxXxXxXxXxXxXxXxXxXxXxXxXxXxXxXxXxXxXxXxXxXxXxXxXxXxX",
"xXxXxXxXxXxXxXxXxXxXxXxXxXxXxXxXxXxXxXxXxXxXxXxXxXxXxXxXxXxXxXxXxXxXxXxXxXxXxXxXxXxXxXxXxXxXxXxXxXxXxXxXxXxXxXxXxXxXxXxX",
"xXxXxXxXxXxXxXxXxXxXxXxXxXxXxXxXxXxXxXxXxXxXxXxXxXxXxXxXxXxXxXxXxXxXxXxXxXxXxXxXxXxXxXxXxXxXxXxXxXxXxXxXxXxXxXxXxXxXxXxX",
"xXxXxXxXxXxXxXxXxXxXxXxXxXxXxXxXxXxXxXxXxXxXxXxXxXxXxXxXxXxXxXxXxXxXxXxXxXxXxXxXxXxXxXxXxXxXxXxXxXxXxXxXxXxXxXxXxXxXxXxX",
"xXxXxXxXxXxXxXxXxXxXxXxXxXxXxXxXxXxXxXxXxXxXxXxXxXxXxXxXxXP P E E M xXxXxXxXxXxXxXxXxXxXxXxXxXxXxXxXxXxXxXxXxXxXxXxXxXxX",
"xXxXxXxXxXxXxXxXxXxXxXxXxXxXxXxXxXxXxXxXxXxXxXxXxXxXxXE ^.D.I ^.^.R.D.M xXxXxXxXxXxXxXxXxXxXxXxXxXxXxXxXxXxXxXxXxXxXxXxX",
"xXxXxXxXxXxXxXxXxXxXxXxXxXxXxXxXxXxXxXxXxXxXxXxXxXxXE ^.K.F / ~./.~.K.m.M xXxXxXxXxXxXxXxXxXxXxXxXxXxXxXxXxXxXxXxXxXxXxX",
"xXxXxXxXxXxXxXxXxXxXxXxXxXxXxXxXxXxXxXxXxXxXxXxXxXK ^.~.Z.F L.(.E.Z.S.n.E M xXxXxXxXxXxXxXxXxXxXxXxXxXxXxXxXxXxXxXxXxXxX",
"xXxXxXxXxXxXxX;.xXxXxXxXxXxXxXxXxXxXxXxXxXxXxXxXxX#./.(.Z.A.W.(.T.v.U S.$.H xXxXxXxXxXxXxXxXxXxXxXxXxXxXxXxXxXxXxXxXxXxX",
"xXxXxXxXxXxX' rX:.xXxXxXxXxXxXxXxXxXxXxXxXxXxXxXxX%.~.E.A.W.Q.E.A.Z.G ^ m.V xXxXxXxXxXxXxXxXxXxXxXxXxXxXxXxXxXxXxXxXxXxX",
"xXxXxXxXxXxXxXXXtX:.xXxXxXxXxXxXxXxXxXxXxXxXxXxXxXR./.E.A.Q.Q.E.H.N.! G m.M xXxXxXxXxXxXxXxXxXxXxXxXxXxXxXxXxXxXxXxXxXxX",
"xXxXxXxXxXxXxX`.zXtXxXxXxXxXxXxXxXxXxXxXxXxXxXxXxXP./.Q.!.Q.W.E.H.G.! G $.p xXxXxXxXxXxXxXxXxXxXxXxXxXxXxXxXxXxXxXxXxXxX",
"xXxXxXxXxXxXxX).lXlX7.xXxXxXxXxXxXxXxXxXxXxXxXxXxX( ~.Q.Q.E.(./.H.M.G R P 4 xXxXxXxXxXxXxXxXxXxXxXxXxXxXxXxXxXxXxXxXxXxX",
"xXxXxXxXxXxXxXi.jXlXuX`.xXxXxXxXxXxXxXxXxXxXxXxXxXM / T.L.E.L.S.n.Y M R V * xXxXxXxXxXxXxXxXxXxXxXxXxXxXxXxXxXxXxXxXxXxX",
"xXxXxXxXxXxXxXi.,X0XsX<XxXxXxXxXxXxXxXxXxXxXxXxXxXxXu K ^ n.n.~ N M T Z 6 # xXxXxXxXxXxXxXxXxXxXxXxXxXxXxXxXxXxXxXxXxXxX",
"xXxXxXxXxXxXxXn #X;X4X2XxXxXxXxXxXxXxXxXxXxXxXxXxXxXxX5 u u i i a K L r 0   xXxXxXxXxXxXxXxXxXxXxXxXxXxXxXxXxXxXxXxXxXxX",
"xXxXxXxXxXxXxXxXo.-X,X6XX.xXxXxXxXxXxXxXxXxXxXxXxXxXxXs ,.C , k J J ` ,.j - xXxXxXxXxXxXxXxXxXxXxXxXxXxXxXxXxXxXxXxXxXxX",
"xXxXxXxXxXxXxXxXc }.#X0X[.xXxXxXxXxXxXxXxXxXxXxXxXxXxXj *XrX-.z -.].rXXX' 2 xXxXxXxXxXxXxXxXxXxXxXxXxXxXxXxXxXxXxXxXxXxX",
"xXxXxXxXxXxXxXxXxX2.#X-X,Xb xXxXxXxXxXxXxXxXxXxXxXxX) f -.tXiXyXhXkXjX1.[ _ d xXxXxXxXxXxXxXxXxXxXxXxXxXxXxXxXxXxXxXxXxX",
"xXxXxXxXxXxXxXxXxX]  Xt.k.[.1 xXxXxXxXxXxXxXxXxXxXj 8.a.o.y.{.6XaXsX-X}.a.e.f xXxXxXxXxXxXxXxXxXxXxXxXxXxXxXxXxXxXxXxXxX",
"xXxXxXxXxXxXxXxXxXxX[.k.t.1X_   xXxXxXxXxXxXxXxXxX| s.}.#X6X6XwX0X6X;X$X{.1.' < xXxXxXxXxXxXxXxXxXxXxXxXxXxXxXxXxXxXxXxX",
"xXxXxXxXxXxXxXxXxXxXn  XO.2XX.- xXxXxXxXxXxXxXxXd e.h.#X;X4XdXdXaXaX3XOX+Xg.&.f d xXxXxXxXxXxXxXxXxXxXxXxXxXxXxXxXxXxXxX",
"xXxXxXxXxXxXxXxXxXxXxXd.y.2.[.d * p t o xXxXxX> _ {.+X$X;XqXsXgXgXdX9X=X@Xh.a.) v :.xXxXxXxXxXxXxXxXxXxXxXxXxXxXxXxXxXxX",
"xXxXxXxXxXxXxXxXxXxXxX-.[.3 7.' w %.V.5 . xXX 2 } u.f.OX;X5X0XgXgX0X9X:X@Xj.1.&.2 -.'.xXxXxXxXxXxXxXxXxXxXxXxXxXxXxXxXxX",
"xXxXxXxXxXxXxXxXxXxXxXz `.v | '.V P H P : xX< 2 [ 3.oX$X;X,XyXkXhXpXeX3Xz.l.{.X.f 2 =.`.x xXxXxXxXxXxXxXxXxXxXxXxXxXxXxX",
"xXxXxXxXxXxXxXxXxXxXxX, ' -.f ,.L i m.%.: . & x 1.g.+X=XwXgXlXlXkXsX4X3XOX+X}.[ 2 x } *.7.| z xXxXxXxXxXxXxXxXxXxXxXxXxX",
"xXxXxXxXxXxXxXxXxXxXxX9 k ,.C 9 H #.I.#.* # , l 1.g.%X&X9XwXfXhXfXpX4X3X=XoXu.1.f x _.1.`.[.|.=._ xXxXxXxXxXxXxXxXxXxXxX",
"xXxXxXxXxXxXxXxXxXxXxX` g h C A m.m.H t . . = l 1.h.%X@X9XwXpXuXpXwX4X:XOXf.u.o.f x 8.w.2.b c &.).<X>.xXxXxXxXxXxXxXxXxX",
"xXxXxXxXxXxXxXxXxXxXxXq q ` L ` C ` J : ; . , d } h.oX@XeXsXkXhX6X5X@X=Xx.OX}.X.x x 8.0.u.6.2._ f :.:.< xXxXxXxXxXxXxXxX",
"xXxXxXxXxXxXxXxXxXxXxXh C C B h =.`.p.k & xX= e } [.oX+X5XaXkXlXsX3X:X>X@XoXh.0.x D s.6.3.3.5.w.] ..7.@   xXxXxXxXxXxXxX",
"xXxXxXxXxXxXxXxXxXxXxXxXs s g ].#X$X`.l % xXo d *.w.5.j.:X7XfXkXsXeX9X:Xz.}.d.&.f  .q.5.3.5.q.w.[ } =.>   xXxXxXxXxXxXxX",
"xXxXxXxXxXxXxXxXxXxXxXxXxXxXC |.#Xh.| s % .   < ] e.q.g.@X=X5XpXwX4X>Xl.}.}.p.S f 9.4.3.r.3.1.w.e...e.@ + xXxXxXxXxXxXxX",
"xXxXxXxXxXxXxXxXxXxXxXxXxXxXxXj _ x r 6 * . xX& e _ 4.j.z.OX3X7X5X5XoXu.a.8.) e d *.4.6.3.3.1.0.i.p.=.@ + xXxXxXxXxXxXxX",
"xXxXxXxXxXxXxXxXxXxXxXxXxXxXxXxXxXs C B 0 . xX  = e _ 2.h.#X5X,X,X1X.X1.{ l g C h S i.6.<.u.4.8.e.|.=.1 + xXxXxXxXxXxXxX",
"xXxXxXxXxXxXxXxXxXxXxXxXxXxXxXxXxXxXxXxXxXxXxXo 6 g 9 k ] ......&.&.{ f g q A +.V s &.y.<.u.u.1.} ).;.>   xXxXxXxXxXxXxX",
"xXxXxXxXxXxXxXxXxXxXxXxXxXxXxXxXxXxXxXxXxXxXxXo q A Z m y t 7 y 7 7 y h L T +.T B 9 ) y.u.<.3.4.[ ' 7.<   xXxXxXxXxXxXxX",
"xXxXxXxXxXxXxXxXxXxXxXxXxXxXxXxXxXxXxXxXxXxXxX; B T $.b.R R R Y R Y Y W R Q Q Q Z q l 8.4.6.3.q.[ ) @.< o xXxXxXxXxXxXxX",
"xXxXxXxXxXxXxXxXxXxXxXxXxXxXxXxXxXxXxXxXxXxXxX; p Q b.M.M.M.M.M.M.c.c.^ n.~ b.b.T q ) 9.w.4.5.q.{ | S - xXxXxXxXxXxXxXxX",
"xXxXxXxXxXxXxXxXxXxXxXxXxXxXxXxXxXxXxXxXxXxXxX. p T b.J.H.F.F.U.U.v.F.G.M.c.W Q T q j 9.w.0.w. .{ l >   xXxXxXxXxXxXxXxX",
"xXxXxXxXxXxXxXxXxXxXxXxXxXxXxXxXxXxXxXxXxXxXxXxX5 V R n.G.G.F.v.U.U.U.F.M.~ W T B = & x ;._.@.j f < o xXxXxXxXxXxXxXxXxX",
"xXxXxXxXxXxXxXxXxXxXxXxXxXxXxXxXxXxXxXxXxXxXxXxX% 4 M W n.J.G.Y.N.G.N.M.b.Q T V 9 &   O l ' ) S - + xXxXxXxXxXxXxXxXxXxX",
"xXxXxXxXxXxXxXxXxXxXxXxXxXxXxXxXxXxXxXxXxXxXxXxXxX* w M K Q ~ ~ ~ ~ ~ ! R T A g = xXxXxXO s h h . xXxXxXxXxXxXxXxXxXxXxX",
"xXxXxXxXxXxXxXxXxXxXxXxXxXxXxXxXxXxXxXxXxXxXxXxXxX6 8 y 4 u u t u p u i m p q $ xXxXxXxXxXxXxXxXxXxXxXxXxXxXxXxXxXxXxXxX",
"xXxXxXxXxXxXxXxXxXxXxXxXxXxXxXxXxXxXxXxXxXxXxXxXxX9 9 7 * % # . % * * 4 4 8 6 xXxXxXxXxXxXxXxXxXxXxXxXxXxXxXxXxXxXxXxXxX",
"xXxXxXxXxXxXxXxXxXxXxXxXxXxXxXxXxXxXxXxXxXxXxXxXxXxX6 6 # . o X X X % 9 7 6 & xXxXxXxXxXxXxXxXxXxXxXxXxXxXxXxXxXxXxXxXxX",
"xXxXxXxXxXxXxXxXxXxXxXxXxXxXxXxXxXxXxXxXxXxXxXxXxXxX6 9 = $ X X X X & 9 7 = $ & xXxXxXxXxXxXxXxXxXxXxXxXxXxXxXxXxXxXxXxX",
"xXxXxXxXxXxXxXxXxXxXxXxXxXxXxXxXxXxXxXxXxXxXxXxXxX, 0 0 , & X & X & , 7 7 , & & & O xXxXxXxXxXxXxXxXxXxXxXxXxXxXxXxXxXxX",
"xXxXxXxXxXxXxXxXxXxXxXxXxXxXxXxXxXxXxXxXxXxXxXxXxX& ; & & o o & # # & & & & & o O O xXxXxXxXxXxXxXxXxXxXxXxXxXxXxXxXxXxX",
"xXxXxXxXxXxXxXxXxXxXxXxXxXxXxXxXxXxXxXxXxXxXxXxXxXo o o o O O & & & o o o O O O O o xXxXxXxXxXxXxXxXxXxXxXxXxXxXxXxXxXxX",
"xXxXxXxXxXxXxXxXxXxXxXxXxXxXxXxXxXxXxXxXxXxXxXxXxXxXxXxXO O O O & O & O O O o xXxXxXxXxXxXxXxXxXxXxXxXxXxXxXxXxXxXxXxXxX",
"xXxXxXxXxXxXxXxXxXxXxXxXxXxXxXxXxXxXxXxXxXxXxXxXxXxXxXxXxXxXxXxXxXxXxXxXxXxXxXxXxXxXxXxXxXxXxXxXxXxXxXxXxXxXxXxXxXxXxXxX",
"xXxXxXxXxXxXxXxXxXxXxXxXxXxXxXxXxXxXxXxXxXxXxXxXxXxXxXxXxXxXxXxXxXxXxXxXxXxXxXxXxXxXxXxXxXxXxXxXxXxXxXxXxXxXxXxXxXxXxXxX",
"xXxXxXxXxXxXxXxXxXxXxXxXxXxXxXxXxXxXxXxXxXxXxXxXxXxXxXxXxXxXxXxXxXxXxXxXxXxXxXxXxXxXxXxXxXxXxXxXxXxXxXxXxXxXxXxXxXxXxXxX",
"xXxXxXxXxXxXxXxXxXxXxXxXxXxXxXxXxXxXxXxXxXxXxXxXxXxXxXxXxXxXxXxXxXxXxXxXxXxXxXxXxXxXxXxXxXxXxXxXxXxXxXxXxXxXxXxXxXxXxXxX",
"xXxXxXxXxXxXxXxXxXxXxXxXxXxXxXxXxXxXxXxXxXxXxXxXxXxXxXxXxXxXxXxXxXxXxXxXxXxXxXxXxXxXxXxXxXxXxXxXxXxXxXxXxXxXxXxXxXxXxXxX",
"xXxXxXxXxXxXxXxXxXxXxXxXxXxXxXxXxXxXxXxXxXxXxXxXxXxXxXxXxXxXxXxXxXxXxXxXxXxXxXxXxXxXxXxXxXxXxXxXxXxXxXxXxXxXxXxXxXxXxXxX",
"xXxXxXxXxXxXxXxXxXxXxXxXxXxXxXxXxXxXxXxXxXxXxXxXxXxXxXxXxXxXxXxXxXxXxXxXxXxXxXxXxXxXxXxXxXxXxXxXxXxXxXxXxXxXxXxXxXxXxXxX",
"xXxXxXxXxXxXxXxXxXxXxXxXxXxXxXxXxXxXxXxXxXxXxXxXxXxXxXxXxXxXxXxXxXxXxXxXxXxXxXxXxXxXxXxXxXxXxXxXxXxXxXxXxXxXxXxXxXxXxXxX"
};
