/* XPM */
static const char *V2Fycmlvcl9CbHVlXzFfLXJlbW92ZWJnLXByZXZpZXc_[] = {
/* columns rows colors chars-per-pixel */
"60 60 228 2 ",
"   c #040404",
".  c #04040A",
"X  c #0B050C",
"o  c #020A0B",
"O  c #0A0A0E",
"+  c #090C05",
"@  c #13080B",
"#  c #0B110A",
"$  c #18150B",
"%  c #040412",
"&  c #040B12",
"*  c #0B0C13",
"=  c #0A0A1C",
"-  c #06071B",
";  c #140A13",
":  c #0B121B",
">  c #081015",
",  c #131214",
"<  c #14131C",
"1  c #1A1B1C",
"2  c #191818",
"3  c #221C1C",
"4  c #251A16",
"5  c #231B0E",
"6  c #292317",
"7  c #37271C",
"8  c #252108",
"9  c #0C1523",
"0  c #0D1A25",
"q  c #061928",
"w  c #101524",
"e  c #131B24",
"r  c #1B1D24",
"t  c #131C2B",
"y  c #1C1C2B",
"u  c #13152A",
"i  c #0D1A34",
"p  c #181C35",
"a  c #0D0E22",
"s  c #221D28",
"d  c #0A222B",
"f  c #19232C",
"g  c #092436",
"h  c #132333",
"j  c #1C2737",
"k  c #0B353C",
"l  c #183436",
"z  c #232324",
"x  c #282826",
"c  c #382D25",
"v  c #36352A",
"b  c #252835",
"n  c #283236",
"m  c #3D3C3D",
"M  c #373637",
"N  c #2B302F",
"B  c #433C37",
"V  c #41282C",
"C  c #4B432B",
"Z  c #4A4436",
"A  c #594837",
"S  c #61593D",
"D  c #162A42",
"F  c #173546",
"G  c #052D46",
"H  c #273846",
"J  c #373C43",
"K  c #283952",
"L  c #353953",
"P  c #463D40",
"I  c #14434D",
"U  c #2A454B",
"Y  c #3A454A",
"T  c #2A4856",
"R  c #364559",
"E  c #37525C",
"W  c #195162",
"Q  c #3A4B66",
"!  c #2A5769",
"~  c #395564",
"^  c #37586A",
"/  c #385974",
"(  c #2B556D",
")  c #1C676A",
"_  c #3B656C",
"`  c #2D6677",
"'  c #386677",
"]  c #316D72",
"[  c #484541",
"{  c #544B45",
"}  c #5D5647",
"|  c #464956",
" . c #475657",
".. c #575657",
"X. c #4B4F50",
"o. c #645846",
"O. c #675C55",
"+. c #735D50",
"@. c #766A4F",
"#. c #676358",
"$. c #766859",
"%. c #7C745E",
"&. c #6A6545",
"*. c #455A66",
"=. c #575B62",
"-. c #465976",
";. c #434866",
":. c #536669",
">. c #456575",
",. c #45697A",
"<. c #4C767D",
"1. c #506E74",
"2. c #676765",
"3. c #766B65",
"4. c #7B7267",
"5. c #697077",
"6. c #777A79",
"7. c #6E6F71",
"8. c #8D795C",
"9. c #877967",
"0. c #867E73",
"q. c #907973",
"w. c #58807F",
"e. c #998769",
"r. c #8A8576",
"t. c #968776",
"y. c #9A947A",
"u. c #858664",
"i. c #A48A6B",
"p. c #A48E75",
"a. c #A6967A",
"s. c #BA9B79",
"d. c #B7A177",
"f. c #D9B77D",
"g. c #386A81",
"h. c #4B6B86",
"j. c #487788",
"k. c #547B89",
"l. c #4A7D94",
"z. c #4F7E98",
"x. c #527C92",
"c. c #527E99",
"v. c #7F7E84",
"b. c #8C7F88",
"n. c #3C8B89",
"m. c #468288",
"M. c #57868B",
"N. c #498898",
"B. c #538B95",
"V. c #4C9598",
"C. c #57989A",
"Z. c #5E9389",
"A. c #678885",
"S. c #698F98",
"D. c #6B9A8B",
"F. c #52A19E",
"G. c #70A299",
"H. c #5C9AAB",
"J. c #6398A0",
"K. c #5DA2A4",
"L. c #66A8AC",
"P. c #6AABB5",
"I. c #73ABB5",
"U. c #70B0AE",
"Y. c #948B87",
"T. c #999789",
"R. c #869A93",
"E. c #9E9595",
"W. c #829689",
"Q. c #A79984",
"!. c #B09D93",
"~. c #98AB95",
"^. c #8BA484",
"/. c #A7A98B",
"(. c #B8A68B",
"). c #A8A899",
"_. c #B6A99A",
"`. c #BBB59C",
"'. c #A3B697",
"]. c #A8A8A6",
"[. c #B6ACA2",
"{. c #B8B6A4",
"}. c #B1B8B3",
"|. c #C9AB87",
" X c #C7B68A",
".X c #D4B484",
"XX c #DABA8D",
"oX c #D6B68A",
"OX c #C9BA97",
"+X c #D3BA94",
"@X c #D4B997",
"#X c #C6AC98",
"$X c #C8BBA6",
"%X c #BBC4A4",
"&X c #D9C18B",
"*X c #CAC499",
"=X c #DBC697",
"-X c #CECA95",
";X c #F1D39B",
":X c #E3C990",
">X c #C8C5AC",
",X c #D5C7AA",
"<X c #DFD5A9",
"1X c #CCC8B9",
"2X c #D1CCB6",
"3X c #D8D6B8",
"4X c #E7D9A6",
"5X c #F3DBA8",
"6X c #E7DCB9",
"7X c #F9E4AC",
"8X c #ECE3B6",
"9X c #EDE3BB",
"0X c #E5E0B8",
"qX c #F3E5BA",
"wX c #DDDACA",
"eX c #D2D5C8",
"rX c #E4DDC3",
"tX c #E8DDC8",
"yX c #DEE3DF",
"uX c #EAE5C7",
"iX c #F5E8C9",
"pX c #E8E7D3",
"aX c #F6EED3",
"sX c #F8F3D9",
"dX c #FAF0CC",
"fX c #FCF9E6",
"gX c #F8FBF0",
"hX c None",
/* pixels */
"hXhXhXhXhXhXhXhXhXhXhXhXhXhXhXhXhXhXhXhXhXhXhXhXhXhXhXhXhXhXhXhXhXhXhXhXhXhXhXhXhXhXhXhXhXhXhXhXhXhXhXhXhXhXhXhXhXhXhXhX",
"hXhXhXhXhXhXhXhXhXhXhXhXhXhXhXhXhXhXhXhXhXhXhXhXhXhXhXhXhXhXhXhXhXhXhXhXhXhXhXhXhXhXhXhXhXhXhXhXhXhXhXhXhXhXhXhXhXhXhXhX",
"hXhXhXhXhXhXhXhXhXhXhXhXhXhXhXhXhXhXhXhXhXhXhXhXhXhXhXhXhXhXhXhXhXhXhXhXhXhXhXhXhXhXhXhXhXhXhXhXhXhXhXhXhXhXhXhXhXhXhXhX",
"hXhXhXhXhXhXhXhXhXhXhXhXhXhXhXhXhXhXhXhXhXhXhXhXhXhXhXhXhXhXhXhXhXhXhXhXhXhXhXhXhXhXhXhXhXhXhXhXhXhXhXhXhXhXhXhXhXhXhXhX",
"hXhXhXhXhXhXhXhXhXhXhXhXhXhXhXhXhXhXhXhXhXhXhXhXhXhXhXhXhXhXhXhXhXhXhXhXhXhXhXhXhXhXhXhXhXhXhXhXhXhXhXhXhXhXhXhXhXhXhXhX",
"hXhXhXhXhXhXhXhXhXhXhXhXhXhXhXhXhXhXhXhXhXhXhXhXhXhXhXhXhXhXhXhXhXhXhXhXhXhXhXhXhXhXhXhXhXhXhXhXhXhXhXhXhXhXhXhXhXhXhXhX",
"hXhXhXhXhXhXhXhXhXhXhXhXhXhXhXhXhXhXhXhXhXk ! M.' _ hXhXhXhXhXhXhXhXhXhXhXhXhXhXhXhXhXhXhXhXhXhXhXhXhXhXhXhXhXhXhXhXhXhX",
"hXhXhXhXhXhXhXhXhXhXhXhXhXhXhXhXhXhXhXhXT ' B.L.U.J.C.Z.*.hXhXhXhXhXhXhXhXhXhXhXhXhXhXhXhXhXhXhXhXhXhXhXhXhXhXhXhXhXhXhX",
"hXhXhXhXhXhXhXhXhXhXhXhXhXhXhXhXhXhXhXT j.N.H.P.K.K.K.U.U.S.hXhXhXhXhXhXhXhXhXhXhXhXhXhXhXhXhXhXhXhXhXhXhXhXhXhXhXhXhXhX",
"hXhXhXhXhXhXhXhXhXhXhXhXhXhXhXhXhXhXK ' N.N.H.P.I.P.C.V.L.U.,.hXhXhXhXhXhXhXhXhXhXhXhXhXhXhXhXhXhXhXhXhXhXhXhXhXhXhXhXhX",
"hXhXhXhXhXhXhXhXhXhXhXhXhXhXhXhXhXf T j.N.g.( ( ' C.U.F.n.C.U.T hXhXhXhXhXhXhXhXhXhXhXhXhXhXhXhXhXhXhXhXhXhXhXhXhXhXhXhX",
"hXhXhXhXhXhXhXhXhXhXhXhXhXhXhXhXhXj >.M.` G g G g F m.U.n.) L.M.hXhXhXhXhXhXhXhXhXhXhXhXhXhXhXhXhXhXhXhXhXhXhXhXhXhXhXhX",
"hXhXhXhXhXhXhXhXhXhXhXhXhXhXhXhXhXf ~ k.j./ Q Q D q k m.K.) ` J.hXhXhXhXhXhXhXhXhXhXhXhXhXhXhXhXhXhXhXhXhXhXhXhXhXhXhXhX",
"hXhXhXhXhXhXhXhXhXhXhXhXhXhXhXhXhXe U >.,./ -.;.L h d k B.j.W j.H hXhXhXhXhXhXhXhXhXhXhXhXhXhXhXhXhXhXhXhXhXhXhXhXhXhXhX",
"hXhXhXhXhXhXhXhXhXhXhXhXhXhXhXhXhXhXh T R Q Q L b - 0 g >._ ( >.j hXhXhXhXhXhXhXhXhXhXhXhXhXhXhXhXhXhXhXhXhXhXhXhXhXhXhX",
"hXhXhXhXhXhXhXhXhXhXhXhXhXhXhXhXhXhX& 0 t p b u = % & h *.K / T w hXhXhXhXhXhXhXhXhXhXhXhXhXhXhXhXhXhXhXhXhXhXhXhXhXhXhX",
"hXhXhXhXhXhXhXhXhXhXhXhXhXhXhXhXhXhXhX. % a - - = w t h R H Q j w hXhXhXhXhXhXhXhXhXhXhXhXhXhXhXhXhXhXhXhXhXhXhXhXhXhXhX",
"hXhXhXhXhXhXhXhXhXhXhXhXhXhXhXhXhXhXhXhXhXhX. r =.6.J J N e f 5.v.m hXhXhXhXhXhXhXhXhXhXhXhXhXhXhXhXhXhXhXhXhXhXhXhXhXhX",
"hXhXhXhXhXhXhXhXhXhXhXhXhXhXhXhXhXhXhXhXhXX , x T.1X{.$X{.[.].yXwX#.4 hXhXhXhXhXhXhXhXhXhXhXhXhXhXr.1XhXhXhXhXhXhXhXhXhX",
"hXhXhXhXhXhXhXhXhXhXhXhXhXhXhXhXhXhXhXhXhX, N { C y.iXaXiXuXpXwX2Xy.$.4 hXhXhXhXhXhXhXhXhXhXhXhXr.wX[.hXhXhXhXhXhXhXhXhX",
"hXhXhXhXhXhXhXhXhXhXhXhXhXhXhXhXhXhXhXhX% < { 9.(.=XqX8XqXdXsXfXaXuX$XA hXhXhXhXhXhXhXhXhXhXhXhXtXfXT.hXhXhXhXhXhXhXhXhX",
"hXhXhXhXhXhXhXhXhXhXhXhXhXhXhXhXhXhXhXhX= b O.p. X&X5X5XqXqXsXfXrXrX6Xa.hXhXhXhXhXhXhXhXhXhXhXr.fXfXT.hXhXhXhXhXhXhXhXhX",
"hXhXhXhXhXhXhXhXhXhXhXhXhXhXhXhXhXhXhXhX< M 4.i..Xf.;X7X7X4XuXpXo.9.6X<XB hXhXhXhXhXhXhXhXhX).tXfXrXt.hXhXhXhXhXhXhXhXhX",
"hXhXhXhXhXhXhXhXhXhXhXhXhXhXhXhXhXhXhX  < v 8.d..Xf.f.;X4X8XuXfX..Z *X6X{ hXhXhXhXhXhXhXhXhX2XsXtX2Xr.hXhXhXhXhXhXhXhXhX",
"hXhXhXhXhXhXhXhXhXhXhXhXhXhXhXhXhXhXhX  1 #.9.|..X.XXXXX=X8XsXfX..3 y.6XE.hXhXhXhXhXhXhXhXhX6X8X,X`.Z hXhXhXhXhXhXhXhXhX",
"hXhXhXhXhXhXhXhXhXhXhXhXhXhXhXhXhXhXhX, 2 O.p.+XXXoX|.@X,XuXuXgX=.< o.2X].r hXhXhXhXhXhXhXr.iX*XOX%.$ hXhXhXhXhXhXhXhXhX",
"hXhXhXhXhXhXhXhXhXhXhXhXhXhX..hXhXhXhXw u X.9.s.|.oXi.e.y._.{.).n e x { [ 1 hXhXhXhXhXhXhX>X4X+XQ.c   hXhXhXhXhXhXhXhXhX",
"hXhXhXhXhXhXhXhXhXhXhXhXhXhXY R.hX$ . a p b +.i.|.s.e.C 8 $ 5 4 < f 1 3 m 6 + hXhXhXhXhX0.3X XOX$.$ hXhXhXhXhXhXhXhXhXhX",
"hXhXhXhXhXhXhXhXhXhXhXhXhXhXd Y T.} # : p b q.p..X=X=X*X/.&.S } N < s 4.eX#.# hXhXhXhXv $X@.p.(.c   hXhXhXhXhXhXhXhXhXhX",
"hXhXhXhXhXhXhXhXhXhXhXhXhXhX1.U X.~.2.x r 3 { p.i.d. X X<X8X6XfX].z [ {.pX/., hXhXhX+ r.{.o.$X+.$ hXhXhXhXhXhXhXhXhXhXhX",
"hXhXhXhXhXhXhXhXhXhXhXhXhXhX<.k.1.:.6.r.o.c 7 O.9.Q.@XoX.X4X9XpX}.2 0.aX9XQ.< - %   v %Xu.%.!.V @ hXhXhXhXhXhXhXhXhXhXhX",
"hXhXhXhXhXhXhXhXhXhXhXhXhXhXj.N.x.A.T.p.t.Q.0.O.O.} (.+X.X=X8XuX{.c (.6X0XZ b L y , $.a.S /.3.; hXhXhXhXhXhXhXhXhXhXhXhX",
"hXhXhXhXhXhXhXhXhXhXhXhXhXhXl.N.V.A.`.8.A o.O.)._.6 3.$XOX+X8X8XrX3XiXtX_.x T S.*.N Q.A +.!.v X hXhXhXhXhXhXhXhXhXhXhXhX",
"hXhXhXhXhXhXhXhXhXhXhXhXhXF j.N.V.G.>X=XOXa.o.A Q.$ x Z 4.OXiX6XdXdXiX`.[ U ,.I U 5.Y.7 t.3.O . hXhXhXhXhXhXhXhXhXhXhXhX",
"hXhXhXhXhXhXhXhXhXhXhXhXhXl <.m.N.U.3X4XXX+Xa.Z T.2 z 1 , v t.,XuXuX>X..n T I.' g <.X.[ 4.6 # hXhXhXhXhXhXhXhXhXhXhXhXhX",
"hXhXhXhXhXhXhXhXhXhXhXhXhXN A.w.m.S.%X<X:X.Xa.o.r.z n n n e 1 M #.T.M f ~ F ,.k._ l 0 =.X.r 1 O hXhXhXhXhXhXhXhXhXhXhXhX",
"hXhXhXhXhXhXhXhXhXhXhXhXhXv ).R.M.A./.-X=X&Xd.@.Y.f E >.~ T H h 0 h F ,.-.T g U :.*.R j p L ;.f hXhXhXhXhXhXhXhXhXhXhXhX",
"hXhXhXhXhXhXhXhXhXhXhXhXhXv {.{.eX'.'.*X*X X(.t.Y.r E k.x.g.^ ! F F / h.Q p | =.m Y R R K i H hXhXhXhXhXhXhXhXhXhXhXhXhX",
"hXhXhXhXhXhXhXhXhXhXhXhXhX6 Q.$X<X0X'.^.'.%X(.t.E.f ~ x.l.l.l.' / / h.,.j r 3.Q._.Z r H R R i hXhXhXhXhXhXhXhXhXhXhXhXhX",
"hXhXhXhXhXhXhXhXhXhXhXhXhXhX9.@X=X6X~.D.D.R.r.$.Y.y Q h.x.l.z.c.j.x.,.D t 3 $.#X$X_.2.e t j hXhXhXhXhXhXhXhXhXhXhXhXhXhX",
"hXhXhXhXhXhXhXhXhXhXhXhXhXhXA #X+XOXW.D.C.M.:.m b.s K ^ *.>.h.h.h.^ H 0 < 2 Z t._.[.2.r . hXhXhXhXhXhXhXhXhXhXhXhXhXhXhX",
"hXhXhXhXhXhXhXhXhXhXhXhXhXhXhX$. XOX~.Z.m.m.:.m 7.y j D j j D D D h 9 & O 2 x c M P z . hXhXhXhXhXhXhXhXhXhXhXhXhXhXhXhX",
"hXhXhXhXhXhXhXhXhXhXhXhXhXhXhX4 $.>X].A.m.B. .:.J t g q < < i i h : % hX& n Y b = < hXhXhXhXhXhXhXhXhXhXhXhXhXhXhXhXhXhX",
"hXhXhXhXhXhXhXhXhXhXhXhXhXhXhXhX4 3.}.R.j.! Y Y : 0 h q O X u i t & . hXhXe b 9 hXhXhXhXhXhXhXhXhXhXhXhXhXhXhXhXhXhXhXhX",
"hXhXhXhXhXhXhXhXhXhXhXhXhXhXhXhXhX< 7.W.*.H b > & 9 h t O . t t e & & & . hXhXhXhXhXhXhXhXhXhXhXhXhXhXhXhXhXhXhXhXhXhXhX",
"hXhXhXhXhXhXhXhXhXhXhXhXhXhXhXhXhXhX, Y J | < * : : e t * * y e : * o o o o hXhXhXhXhXhXhXhXhXhXhXhXhXhXhXhXhXhXhXhXhXhX",
"hXhXhXhXhXhXhXhXhXhXhXhXhXhXhXhXhXhXhX: r y * . * * & = % % * X ; * & & > * hXhXhXhXhXhXhXhXhXhXhXhXhXhXhXhXhXhXhXhXhXhX",
"hXhXhXhXhXhXhXhXhXhXhXhXhXhXhXhXhXhXhXhX< * . * X * % % * * X X @ X o o & & X hXhXhXhXhXhXhXhXhXhXhXhXhXhXhXhXhXhXhXhXhX",
"hXhXhXhXhXhXhXhXhXhXhXhXhXhXhXhXhXhXhXhXhXhX. O O O O O O O O O O O O o .     hXhXhXhXhXhXhXhXhXhXhXhXhXhXhXhXhXhXhXhXhX",
"hXhXhXhXhXhXhXhXhXhXhXhXhXhXhXhXhXhXhXhXhXhXhX. . . . . . . . . . . . . hXhXhXhXhXhXhXhXhXhXhXhXhXhXhXhXhXhXhXhXhXhXhXhX",
"hXhXhXhXhXhXhXhXhXhXhXhXhXhXhXhXhXhXhXhXhXhXhXhXhXhXhXhXhXhXhXhXhXhXhXhXhXhXhXhXhXhXhXhXhXhXhXhXhXhXhXhXhXhXhXhXhXhXhXhX",
"hXhXhXhXhXhXhXhXhXhXhXhXhXhXhXhXhXhXhXhXhXhXhXhXhXhXhXhXhXhXhXhXhXhXhXhXhXhXhXhXhXhXhXhXhXhXhXhXhXhXhXhXhXhXhXhXhXhXhXhX",
"hXhXhXhXhXhXhXhXhXhXhXhXhXhXhXhXhXhXhXhXhXhXhXhXhXhXhXhXhXhXhXhXhXhXhXhXhXhXhXhXhXhXhXhXhXhXhXhXhXhXhXhXhXhXhXhXhXhXhXhX",
"hXhXhXhXhXhXhXhXhXhXhXhXhXhXhXhXhXhXhXhXhXhXhXhXhXhXhXhXhXhXhXhXhXhXhXhXhXhXhXhXhXhXhXhXhXhXhXhXhXhXhXhXhXhXhXhXhXhXhXhX",
"hXhXhXhXhXhXhXhXhXhXhXhXhXhXhXhXhXhXhXhXhXhXhXhXhXhXhXhXhXhXhXhXhXhXhXhXhXhXhXhXhXhXhXhXhXhXhXhXhXhXhXhXhXhXhXhXhXhXhXhX",
"hXhXhXhXhXhXhXhXhXhXhXhXhXhXhXhXhXhXhXhXhXhXhXhXhXhXhXhXhXhXhXhXhXhXhXhXhXhXhXhXhXhXhXhXhXhXhXhXhXhXhXhXhXhXhXhXhXhXhXhX",
"hXhXhXhXhXhXhXhXhXhXhXhXhXhXhXhXhXhXhXhXhXhXhXhXhXhXhXhXhXhXhXhXhXhXhXhXhXhXhXhXhXhXhXhXhXhXhXhXhXhXhXhXhXhXhXhXhXhXhXhX",
"hXhXhXhXhXhXhXhXhXhXhXhXhXhXhXhXhXhXhXhXhXhXhXhXhXhXhXhXhXhXhXhXhXhXhXhXhXhXhXhXhXhXhXhXhXhXhXhXhXhXhXhXhXhXhXhXhXhXhXhX",
"hXhXhXhXhXhXhXhXhXhXhXhXhXhXhXhXhXhXhXhXhXhXhXhXhXhXhXhXhXhXhXhXhXhXhXhXhXhXhXhXhXhXhXhXhXhXhXhXhXhXhXhXhXhXhXhXhXhXhXhX",
"hXhXhXhXhXhXhXhXhXhXhXhXhXhXhXhXhXhXhXhXhXhXhXhXhXhXhXhXhXhXhXhXhXhXhXhXhXhXhXhXhXhXhXhXhXhXhXhXhXhXhXhXhXhXhXhXhXhXhXhX"
};
