/* XPM */
static const char *VHJlZS1yZW1vdmViZy1wcmV2aWV3KyUyODElMjk_[] = {
/* columns rows colors chars-per-pixel */
"60 60 237 2 ",
"   c #00040C",
".  c #000607",
"X  c #010D13",
"o  c #040E1C",
"O  c #01141C",
"+  c #061818",
"@  c #0E130E",
"#  c #032318",
"$  c #031A23",
"%  c #0C1D25",
"&  c #101E27",
"*  c #012423",
"=  c #0A2126",
"-  c #03222C",
";  c #0C2C2D",
":  c #042A28",
">  c #16282B",
",  c #08342B",
"<  c #072C34",
"1  c #182B36",
"2  c #0E313B",
"3  c #093C39",
"4  c #1C333B",
"5  c #143C3B",
"6  c #193839",
"7  c #252D37",
"8  c #243639",
"9  c #36373A",
"0  c #2E2C2D",
"q  c #483B3A",
"w  c #0C493A",
"e  c #174438",
"r  c #18593D",
"t  c #2A4F31",
"y  c #176C3D",
"u  c #566C35",
"i  c #446C3F",
"p  c #0D3745",
"a  c #133A44",
"s  c #193B44",
"d  c #173948",
"f  c #243B45",
"g  c #2A3A45",
"h  c #413C42",
"j  c #194548",
"k  c #0C5347",
"l  c #195445",
"z  c #1B4953",
"x  c #1B5B5B",
"c  c #195254",
"v  c #0E4943",
"b  c #294649",
"n  c #36464B",
"m  c #2A514F",
"M  c #285D4D",
"N  c #244553",
"B  c #244D56",
"V  c #254C5B",
"C  c #2A4C5E",
"Z  c #284A56",
"A  c #245354",
"S  c #245C55",
"D  c #24525C",
"F  c #2C535D",
"G  c #235C5B",
"H  c #2B5C5A",
"J  c #34545C",
"K  c #345C5C",
"L  c #3B575B",
"P  c #395155",
"I  c #1A6756",
"U  c #1C725B",
"Y  c #1A7458",
"T  c #1D7042",
"R  c #2B625C",
"E  c #266559",
"W  c #336857",
"Q  c #247553",
"!  c #2A7859",
"~  c #38785B",
"^  c #32614F",
"/  c #1A5E61",
"(  c #264B61",
")  c #2D5B64",
"_  c #2C5E6A",
"`  c #285466",
"'  c #3D5663",
"]  c #335C64",
"[  c #365968",
"{  c #395F73",
"}  c #2F5F73",
"|  c #1E7662",
" . c #1E6867",
".. c #246365",
"X. c #2B6465",
"o. c #23646A",
"O. c #236D6A",
"+. c #2B6D6C",
"@. c #2C6969",
"#. c #346362",
"$. c #3A6364",
"%. c #33626E",
"&. c #3C636A",
"*. c #366D6B",
"=. c #386C6A",
"-. c #237363",
";. c #24746B",
":. c #2A746B",
">. c #2B7C6D",
",. c #287A67",
"<. c #337C65",
"1. c #367668",
"2. c #2D6E72",
"3. c #286372",
"4. c #326B73",
"5. c #3B6672",
"6. c #2C7172",
"7. c #2D7C73",
"8. c #367872",
"9. c #484448",
"0. c #584442",
"q. c #415755",
"w. c #595253",
"e. c #685558",
"r. c #795A5F",
"t. c #457954",
"y. c #405B62",
"u. c #44636A",
"i. c #48736E",
"p. c #4D7C77",
"a. c #776668",
"s. c #328748",
"d. c #22845A",
"f. c #2A855C",
"g. c #2B8A57",
"h. c #328E5B",
"j. c #388858",
"k. c #349454",
"l. c #33955C",
"z. c #38945E",
"x. c #3C9C5D",
"c. c #379857",
"v. c #2E8D52",
"b. c #3CA358",
"n. c #278363",
"m. c #2D8366",
"M. c #2B826B",
"N. c #2E8B6B",
"B. c #288964",
"V. c #3D8365",
"C. c #338D62",
"Z. c #34856C",
"A. c #348D6C",
"S. c #3A8C6B",
"D. c #388868",
"F. c #2C9463",
"G. c #2C9A6C",
"H. c #2A9567",
"J. c #339363",
"K. c #3B9464",
"L. c #339B65",
"P. c #3B9C64",
"I. c #33946B",
"U. c #3A946B",
"Y. c #36996B",
"T. c #3B9A6B",
"R. c #358574",
"E. c #3B8374",
"W. c #3B8A75",
"Q. c #3C857B",
"!. c #3C8A7B",
"~. c #348B74",
"^. c #3C9473",
"/. c #3A9B72",
"(. c #3A9677",
"). c #2C8073",
"_. c #3BA26B",
"`. c #38A169",
"'. c #3CA273",
"]. c #449C5D",
"[. c #779355",
"{. c #44A25A",
"}. c #4BA45A",
"|. c #58A554",
" X c #5CB65F",
".X c #47B35E",
"XX c #62B858",
"oX c #78BD5A",
"OX c #6EB051",
"+X c #448B67",
"@X c #528468",
"#X c #439D64",
"$X c #429C6B",
"%X c #46986A",
"&X c #468976",
"*X c #459879",
"=X c #579171",
"-X c #6D9164",
";X c #44A364",
":X c #4AAB65",
">X c #45A46B",
",X c #4AA56B",
"<X c #42AA6C",
"1X c #4BAC6A",
"2X c #47AD64",
"3X c #57AC68",
"4X c #4DB365",
"5X c #53B46C",
"6X c #56B569",
"7X c #43A373",
"8X c #4BA671",
"9X c #45AA76",
"0X c #4BA978",
"qX c #54AC75",
"wX c #4FB279",
"eX c #53B273",
"rX c #55B675",
"tX c #66A76F",
"yX c #67A676",
"uX c #6EB56D",
"iX c #7AC35B",
"pX c #69C36B",
"aX c #80C453",
"sX c #9CD368",
"dX c #97C87A",
"fX c #94C663",
"gX c #B3D477",
"hX c #A6CD6C",
"jX c #3F8382",
"kX c #4A9184",
"lX c #5FAA81",
"zX c #9BBB81",
"xX c #A4B581",
"cX c #99CC87",
"vX c #B1D988",
"bX c #BFD690",
"nX c None",
/* pixels */
"nXnXnXnXnXnXnXnXnXnXnXnXnXnXnXnXnXnXnXnXnXnXnXnXnXnXnXnXnXnXnXnXnXnXnXnXnXnXnXnXnXnXnXnXnXnXnXnXnXnXnXnXnXnXnXnXnXnXnXnX",
"nXnXnXnXnXnXnXnXnXnXnXnXnXnXnXnXnXnXnXnXnXnXnXnXnXnXnXnXnXnXnXnXnXnXnXnXnXnXnXnXnXnXnXnXnXnXnXnXnXnXnXnXnXnXnXnXnXnXnXnX",
"nXnXnXnXnXnXnXnXnXnXnXnXnXnXnXnXnXnXnXnXnXnXnXnXnXnXnXnXnXnXnXnXnXnXnXnXnXnXnXnXnXnXnXnXnXnXnXnXnXnXnXnXnXnXnXnXnXnXnXnX",
"nXnXnXnXnXnXnXnXnXnXnXnXnXnXnXnXnXnXnXnXnXnXnXnXnXnXnXnXnXnXnXnXnXnXnXnXnXnXnXnXnXnXnXnXnXnXnXnXnXnXnXnXnXnXnXnXnXnXnXnX",
"nXnXnXnXnXnXnXnXnXnXnXnXnXnXnXnXnXnXnXnXnXnXnXnXnXnXnXnXnXnXnXnXnXnXnXnXnXnXnXnXnXnXnXnXnXnXnXnXnXnXnXnXnXnXnXnXnXnXnXnX",
"nXnXnXnXnXnXnXnXnXnXnXnXnXnXnXnXnXnXnXnXnXnXnXnXnXnXnXnXnXxX-XnXnXnXnXnXnXnXnXnXnXnXnXnXnXnXnXnXnXnXnXnXnXnXnXnXnXnXnXnX",
"nXnXnXnXnXnXnXnXnXnXnXnXnXnXnXnXnXnXnXnXnXnXnXnXnXnXnXnXu bXzXnXnXnXnXnXnXnXnXnXnXnXnXnXnXnXnXnXnXnXnXnXnXnXnXnXnXnXnXnX",
"nXnXnXnXnXnXnXnXnXnXnXnXnXnXnXnXnXnXnXnXnXnXnXnXnXnXnXnX[.gXvXu nXnXnXnXnXnXnXnXnXnXnXnXnXnXnXnXnXnXnXnXnXnXnXnXnXnXnXnX",
"nXnXnXnXnXnXnXnXnXnXnXnXnXnXnXnXnXnXnXnXnXnXnXnXnXnXnXnXhXgXvX[.nXnXnXnXnXnXnXnXnXnXnXnXnXnXnXnXnXnXnXnXnXnXnXnXnXnXnXnX",
"nXnXnXnXnXnXnXnXnXnXnXnXnXnXnXnXnXnXnXnXnXnXnXnXnXnXnX[.hXsXsXdXt nXnXnXnXnXnXnXnXnXnXnXnXnXnXnXnXnXnXnXnXnXnXnXnXnXnXnX",
"nXnXnXnXnXnXnXnXnXnXnXnXnXnXnXnXnXnXnXnXnXnXnXnXnXnXnXzXfXsXoXdX-XnXnXnXnXnXnXnXnXnXnXnXnXnXnXnXnXnXnXnXnXnXnXnXnXnXnXnX",
"nXnXnXnXnXnXnXnXnXnXnXnXnXnXnXnXnXnXnXnXnXnXnXnXnXnXi cXoXaXiXOXyXt nXnXnXnXnXnXnXnXnXnXnXnXnXnXnXnXnXnXnXnXnXnXnXnXnXnX",
"nXnXnXnXnXnXnXnXnXnXnXnXnXnXnXnXnXnXnXnXnXnXnXnXnXnXtXuXOXiXoX|.yX@XnXnXnXnXnXnXnXnXnXnXnXnXnXnXnXnXnXnXnXnXnXnXnXnXnXnX",
"nXnXnXnXnXnXnXnXnXnXnXnXnXnXnXnXnXnXnXnXnXnXnXnXnXt.uX|.XXXXXX|.].yXt.nXnXnXnXnXnXnXnXnXnXnXnXnXnXnXnXnXnXnXnXnXnXnXnXnX",
"nXnXnXnXnXnXnXnXnXnXnXnXnXnXnXnXnXnXnXnXnXnXnXnXnXtX3X}. XpX X3Xs.j.=Xr nXnXnXnXnXnXnXnXnXnXnXnXnXnXnXnXnXnXnXnXnXnXnXnX",
"nXnXnXnXnXnXnXnXnXnXnXnXnXnXnXnXnXnXnXnXnXnXnXnX@XyXs.{.6X4X6X6X,XT r @Xq.nXnXnXnXnXnXnXnXnXnXnXnXnXnXnXnXnXnXnXnXnXnXnX",
"nXnXnXnXnXnXnXnXnXnXnXnXnXnXnXnXnXnXnXnXnXnXnXp.&Xr y qX;X].1X;XwX*Xw , > nXnXnXnXnXnXnXnXnXnXnXnXnXnXnXnXnXnXnXnXnXnXnX",
"nXnXnXnXnXnXnXnXnXnXnXnXnXnXnXnXnXnXnXnXnXnXnX6 3 w S.S.h.wXl.P.Y.^.1.* nXnXnXnXnXnXnXnXnXnXnXnXnXnXnXnXnXnXnXnXnXnXnXnX",
"nXnXnXnXnXnXnXnXnXnXnXnXnXnXnXnXnXnXnXnXnXnXnXnX, W *Xd.g.9XP.J.Y.^.&Xe nXnXnXnXnXnXnXnXnXnXnXnXnXnXnXnXnXnXnXnXnXnXnXnX",
"nXnXnXnXnXnXnXnXnXnXnXnXnXnXnXnXnXnXnXnXnXnXnX# ^ &XU.F.F.L.9XJ.J.U.V.W # nXnXnXnXnXnXnXnXnXnXnXnXnXnXnXnXnXnXnXnXnXnXnX",
"nXnXnXnXnXnXnXnXnXnXnXnXnXnXnXnXnXnXnXnXnXnXnXl j.%XK.T.J.L.F.J.g.h.+X+Xe X nXnXnXnXnXnXnXnXnXnXnXnXnXnXnXnXnXnXnXnXnXnX",
"nXnXnXnXnXnXnXnXnXnXnXnXnXnXnXnXnXnXnXnXnXnXr V.%XqXP.z.P.<Xl.P.l.v.8X%X~ e > nXnXnXnXnXnXnXnXnXnXnXnXnXnXnXnXnXnXnXnXnX",
"nXnXnXnXnXnXnXnXnXnXnXnXnXnXnXnXnXnXnXnXnXM V.%XqX>Xl.x.;XeX:X1X1Xk.1X,X+XW b n nXnXnXnXnXnXnXnXnXnXnXnXnXnXnXnXnXnXnXnX",
"nXnXnXnXnXnXnXnXnXnXnXnXnXnXnXnXnXnXnXn J H <.lX%Xy k.1X2X5X6X6XrX;Xx.eX0X&Xe ; nXnXnXnXnXnXnXnXnXnXnXnXnXnXnXnXnXnXnXnX",
"nXnXnXnXnXnXnXnXnXnXnXnXnXnXnXnXnXnXnXnX> L =X~ r g.c.6X.X4X6X{.3XeXb.`.7X*X*.# . nXnXnXnXnXnXnXnXnXnXnXnXnXnXnXnXnXnXnX",
"nXnXnXnXnXnXnXnXnXnXnXnXnXnXnXnXnXnXnXnX+ 6 e l ~ K.1X2Xb.b.6X}.s.,XeX_.Y.~.E.l + nXnXnXnXnXnXnXnXnXnXnXnXnXnXnXnXnXnXnX",
"nXnXnXnXnXnXnXnXnXnXnXnXnXnXnXnXnXnXnXnXnX: S Z.K.,X>Xk.{.c.{.:Xc.v.<X_.B.n.kX1.5 + nXnXnXnXnXnXnXnXnXnXnXnXnXnXnXnXnXnX",
"nXnXnXnXnXnXnXnXnXnXnXnXnXnXnXnXnXnXnXnX: S &XZ.T.#XK.P.eX,Xc.:X>Xh.J.Y.(.U I &Xi.P > nXnXnXnXnXnXnXnXnXnXnXnXnXnXnXnXnX",
"nXnXnXnXnXnXnXnXnXnXnXnXnXnXnXnXnXnXnX* E W.m./.I.h.;XrX5X:X#XK.T.T.I.N.A.M.k w m b 7 nXnXnXnXnXnXnXnXnXnXnXnXnXnXnXnXnX",
"nXnXnXnXnXnXnXnXnXnXnXnXnXnXnXnXnXnXj #.8.-.Y A.f.J.rXrX4Xx.$XC.Y.F.^.~.I <.E , * X . nXnXnXnXnXnXnXnXnXnXnXnXnXnXnXnXnX",
"nXnXnXnXnXnXnXnXnXnXnXnXnXnXnXnXnXb ' J j l <.Q z.1X5X2X2Xx.P.Y.H.B.M.R.:.I l W 6 + nXnXnXnXnXnXnXnXnXnXnXnXnXnXnXnXnXnX",
"nXnXnXnXnXnXnXnXnXnXnXnXnXnXnXnXnXnX- - j 1.Z.S.eX5Xb.<Xl.L.L.F.G.B.| ,.W.8.E j 6 $ nXnXnXnXnXnXnXnXnXnXnXnXnXnXnXnXnXnX",
"nXnXnXnXnXnXnXnXnXnXnXnXnXnXnXnXnXnXnXv +.Z.T._.<X<X_.F.I.G.F.G.H.G.H.d.m.&X8.A 2 O nXnXnXnXnXnXnXnXnXnXnXnXnXnXnXnXnXnX",
"nXnXnXnXnXnXnXnXnXnXnXnXnXnXnXnXnXnXj *.&X^.Y.L.L.F.I.I.I.I.H.Y.'.F.L.L.C.A.Q.X.) s O nXnXnXnXnXnXnXnXnXnXnXnXnXnXnXnXnX",
"nXnXnXnXnXnXnXnXnXnXnXnXnXnXnXnXg K i.p.<.! C.K.h.g.J.T.A.C.C.U.$Xx.x.P.K.U.Z.E *.5.b + nXnXnXnXnXnXnXnXnXnXnXnXnXnXnXnX",
"nXnXnXnXnXnXnXnXnXnXnXnXnXnXnXnX= < 3 l ! S.T.J.h.h.K.$XC.f.! C.qX}.3X5Xx.J.S.E v A u.P nXnXnXnXnXnXnXnXnXnXnXnXnXnXnXnX",
"nXnXnXnXnXnXnXnXnXnXnXnXnXnXnXnXnX- 5 E Z./.'._.F._._.$XU.J.d.C.3XrX3X6XeXh.Q <.S 5 ; + nXnXnXnXnXnXnXnXnXnXnXnXnXnXnXnX",
"nXnXnXnXnXnXnXnXnXnXnXnXnXnXnXnX2 j H 8.*X(./.L.`.9X9X7XY.Y.f.C.#X:X{.1XeXK.! l R K 8 X nXnXnXnXnXnXnXnXnXnXnXnXnXnXnXnX",
"nXnXnXnXnXnXnXnXnXnXnXnXnXnXb K G 8.jXQ.7.,.C.l.<X7X'./.n.I.C.J.l.,Xl.l.wX0X<.l 5 =   nXnXnXnXnXnXnXnXnXnXnXnXnXnXnXnXnX",
"nXnXnXnXnXnXnXnXnXnXnXnXnXnX6 K *.8...c k I U.8X8XJ.I.A.Y N.U.U.J.T.d.B./.(.W.E m =   nXnXnXnXnXnXnXnXnXnXnXnXnXnXnXnXnX",
"nXnXnXnXnXnXnXnXnXnXnXnXnXnXnX> 4 2 d z c <.*X7Xg.f.A.U U m.7XN.n.(.N.Y M.R.!.1.A 4 o nXnXnXnXnXnXnXnXnXnXnXnXnXnXnXnXnX",
"nXnXnXnXnXnXnXnXnXnXnXnXnXnX7 7 1 f N D *.kX*X! Q Q m.,.U M.*X(.I | ~.>.;.>.8.8.] N 4 o   nXnXnXnXnXnXnXnXnXnXnXnXnXnXnX",
"nXnXnXnXnXnXnXnXnXnXnXnXnX1 g f z D ) %.=.=.R l ! <.Z.M.U ,.~.!.:.I 7.7.O.O.+.X.#.Z C g 1 O nXnXnXnXnXnXnXnXnXnXnXnXnXnX",
"nXnXnXnXnXnXnXnXnXnXnXnXnXnX8 Z ) ) ) F D j l S :.E.R.,.-.>.R.Q.!.:.O.6.+...@.c F ] ` [ ' L n > nXnXnXnXnXnXnXnXnXnXnXnX",
"nXnXnXnXnXnXnXnXnXnXnXnX8 K $.&.5.[ V z D ) ..+.:.7.7.| -.>.).7.7.7.O.6.2.X.@.G 3 A ] [ J f 1 nXnXnXnXnXnXnXnXnXnXnXnXnX",
"nXnXnXnXnXnXnXnXnXnXnXnXnXm K ) F N d N _ %.@.+.2.6.O. .;.;.;.;.;.:.6.o.o.6.@.8.E 3 < - - O nXnXnXnXnXnXnXnXnXnXnXnXnXnX",
"nXnXnXnXnXnXnXnXnXnXnXnXnXnXnX$ < 2 d ( ` ` D ) G ..o.3.3.6.+.@.+.+.2.o./ ;.:.!.W.-.x 3 $ nXnXnXnXnXnXnXnXnXnXnXnXnXnXnX",
"nXnXnXnXnXnXnXnXnXnXnXnXnXnXnXnX; B %.[ ( V V z V %.} 3.` 4.X.G G 4.2.2.x x >.R.R.E.1.$.8 nXnXnXnXnXnXnXnXnXnXnXnXnXnXnX",
"nXnXnXnXnXnXnXnXnXnXnXnXnXnXnXn #.*.X.D _ [ N p ` { { ` ( 5.D c c _ 4.3.4.x c R #.#.m > nXnXnXnXnXnXnXnXnXnXnXnXnXnXnXnX",
"nXnXnXnXnXnXnXnXnXnXnXnXnXnXnXnXnXA #.] B a 2 d C C C a C [ a B D p c _ 5.) z j 5 ; O nXnXnXnXnXnXnXnXnXnXnXnXnXnXnXnXnX",
"nXnXnXnXnXnXnXnXnXnXnXnXnXnXnXnXnXnXnXnXO $ 2 F B z a a F s s Z &.d p j B F &.$.' 4 nXnXnXnXnXnXnXnXnXnXnXnXnXnXnXnXnXnX",
"nXnXnXnXnXnXnXnXnXnXnXnXnXnXnXnXnXnXnXnXnXb L &.] s 2 J y.4 g 4 ' u.Z N s < f b 1 nXnXnXnXnXnXnXnXnXnXnXnXnXnXnXnXnXnXnX",
"nXnXnXnXnXnXnXnXnXnXnXnXnXnXnXnXnXnXnXnXnXnXb m 6 * b q.9 0 h 9.g L ' P 4 O X nXnXnXnXnXnXnXnXnXnXnXnXnXnXnXnXnXnXnXnXnX",
"nXnXnXnXnXnXnXnXnXnXnXnXnXnXnXnXnXnXnXnXnXnXnXnXO + 8 9 9.e.e.e.7 % > &   nXnXnXnXnXnXnXnXnXnXnXnXnXnXnXnXnXnXnXnXnXnXnX",
"nXnXnXnXnXnXnXnXnXnXnXnXnXnXnXnXnXnXnXnXnXnXnXnXnX9 w.9.e.a.r.e.9.7 + nXnXnXnXnXnXnXnXnXnXnXnXnXnXnXnXnXnXnXnXnXnXnXnXnX",
"nXnXnXnXnXnXnXnXnXnXnXnXnXnXnXnXnXnXnXnXnXnXnXnXnX9 a.q 0.e.0.e.9 n nXnXnXnXnXnXnXnXnXnXnXnXnXnXnXnXnXnXnXnXnXnXnXnXnXnX",
"nXnXnXnXnXnXnXnXnXnXnXnXnXnXnXnXnXnXnXnXnXnXnXnXnXnXw.q 0 q 0.q @ nXnXnXnXnXnXnXnXnXnXnXnXnXnXnXnXnXnXnXnXnXnXnXnXnXnXnX",
"nXnXnXnXnXnXnXnXnXnXnXnXnXnXnXnXnXnXnXnXnXnXnXnXnXnXnXnXnXnX@ nXnXnXnXnXnXnXnXnXnXnXnXnXnXnXnXnXnXnXnXnXnXnXnXnXnXnXnXnX",
"nXnXnXnXnXnXnXnXnXnXnXnXnXnXnXnXnXnXnXnXnXnXnXnXnXnXnXnXnXnXnXnXnXnXnXnXnXnXnXnXnXnXnXnXnXnXnXnXnXnXnXnXnXnXnXnXnXnXnXnX",
"nXnXnXnXnXnXnXnXnXnXnXnXnXnXnXnXnXnXnXnXnXnXnXnXnXnXnXnXnXnXnXnXnXnXnXnXnXnXnXnXnXnXnXnXnXnXnXnXnXnXnXnXnXnXnXnXnXnXnXnX"
};
